<svg width="67" height="75" viewBox="0 0 67 75" fill="none" xmlns="http://www.w3.org/2000/svg">
<path d="M6.5 42C6.16848 42 5.85054 42.1317 5.61612 42.3661C5.3817 42.6005 5.25 42.9185 5.25 43.25V48.25C5.25 48.5815 5.3817 48.8995 5.61612 49.1339C5.85054 49.3683 6.16848 49.5 6.5 49.5C6.83152 49.5 7.14946 49.3683 7.38388 49.1339C7.6183 48.8995 7.75 48.5815 7.75 48.25V43.25C7.75 42.9185 7.6183 42.6005 7.38388 42.3661C7.14946 42.1317 6.83152 42 6.5 42Z" fill="white"/>
<path d="M11.5 44.5C11.1685 44.5 10.8505 44.6317 10.6161 44.8661C10.3817 45.1005 10.25 45.4185 10.25 45.75V50.75C10.25 51.0815 10.3817 51.3995 10.6161 51.6339C10.8505 51.8683 11.1685 52 11.5 52C11.8315 52 12.1495 51.8683 12.3839 51.6339C12.6183 51.3995 12.75 51.0815 12.75 50.75V45.75C12.75 45.4185 12.6183 45.1005 12.3839 44.8661C12.1495 44.6317 11.8315 44.5 11.5 44.5Z" fill="white"/>
<path d="M57.0925 51.2088C56.8179 51.0343 56.4861 50.9737 56.1676 51.0399C55.8491 51.1062 55.5689 51.294 55.3866 51.5635C55.2044 51.833 55.1344 52.1629 55.1915 52.4832C55.2486 52.8035 55.4283 53.0889 55.6925 53.2787C57.1832 54.2825 58.264 55.7881 58.738 57.5216C59.2121 59.2551 59.048 61.1011 58.2755 62.7238C57.503 64.3464 56.1735 65.6378 54.5291 66.3627C52.8847 67.0877 51.0346 67.198 49.3156 66.6737C47.5967 66.1494 46.1231 65.0253 45.1632 63.506C44.2033 61.9867 43.8208 60.1733 44.0854 58.3957C44.35 56.6182 45.2441 54.9947 46.605 53.8209C47.9658 52.647 49.7028 52.0009 51.5 52C51.8315 52 52.1495 51.8683 52.3839 51.6339C52.6183 51.3995 52.75 51.0815 52.75 50.75C52.75 50.4185 52.6183 50.1005 52.3839 49.8661C52.1495 49.6317 51.8315 49.5 51.5 49.5C49.104 49.5004 46.7877 50.3612 44.9729 51.9255C43.158 53.4899 41.9652 55.6539 41.6114 58.0237C41.2577 60.3935 41.7666 62.8115 43.0455 64.8376C44.3244 66.8638 46.2883 68.3634 48.5798 69.0635C50.8712 69.7637 53.3379 69.6178 55.5309 68.6524C57.7238 67.6871 59.4973 65.9664 60.5284 63.8036C61.5596 61.6408 61.7799 59.1797 61.1493 56.8681C60.5187 54.5566 59.0791 52.5483 57.0925 51.2088V51.2088Z" fill="white"/>
<path d="M57.75 45.8748V18.2498C57.7501 18.0325 57.6935 17.819 57.5858 17.6303C57.4782 17.4416 57.3233 17.2841 57.1362 17.1736L29.6362 0.923553C29.4436 0.809618 29.2238 0.749512 29 0.749512C28.7762 0.749512 28.5564 0.809618 28.3637 0.923553L0.86375 17.1736C0.8375 17.1886 0.818751 17.2111 0.793751 17.2286C0.768751 17.2461 0.745001 17.2661 0.720001 17.2861C0.611459 17.3715 0.518071 17.4746 0.44375 17.5911C0.44375 17.5998 0.42875 17.6048 0.42375 17.6136V17.6223C0.353276 17.7493 0.305477 17.8876 0.2825 18.0311C0.2825 18.0686 0.27125 18.1036 0.2675 18.1411C0.26375 18.1786 0.25 18.2123 0.25 18.2498V50.7498C0.249949 50.9671 0.306527 51.1806 0.414154 51.3693C0.52178 51.558 0.676739 51.7155 0.86375 51.826L28.3637 68.076C28.3967 68.092 28.4305 68.1062 28.465 68.1185C28.4991 68.1356 28.5342 68.1506 28.57 68.1635C28.7062 68.2205 28.8524 68.2498 29 68.2498C29.1476 68.2498 29.2938 68.2205 29.43 68.1635C29.4663 68.1506 29.5017 68.1356 29.5363 68.1185C29.5688 68.1035 29.6037 68.0948 29.6362 68.076L37.1 63.6648C37.797 66.0794 39.0898 68.2801 40.8595 70.0645C42.6293 71.849 44.8191 73.1599 47.2279 73.877C49.6366 74.594 52.187 74.694 54.6445 74.1679C57.102 73.6417 59.3878 72.5063 61.2919 70.866C63.1959 69.2256 64.6571 67.133 65.5411 64.7804C66.4251 62.4278 66.7036 59.8907 66.351 57.4024C65.9983 54.9141 65.0258 52.5543 63.5229 50.54C62.02 48.5257 60.0349 46.9215 57.75 45.8748V45.8748ZM29 3.45105L35.5 7.2923L25.8625 12.9873C25.5769 13.156 25.37 13.4313 25.2874 13.7526C25.2048 14.0739 25.2531 14.4148 25.4219 14.7004C25.5906 14.986 25.8659 15.1929 26.1872 15.2755C26.5085 15.3582 26.8494 15.3098 27.135 15.1411L37.9587 8.7498L44.4588 12.5911L19.4163 27.3848L12.9162 23.5436L23.3875 17.3561C23.6731 17.1873 23.88 16.912 23.9626 16.5907C24.0452 16.2695 23.9969 15.9285 23.8281 15.6429C23.6594 15.3573 23.3841 15.1504 23.0628 15.0678C22.7415 14.9852 22.4006 15.0336 22.115 15.2023L10.4587 22.0911L3.9575 18.2498L29 3.45105ZM11.7087 25.7348L18.1663 29.5511V37.8973L11.7087 34.0811V25.7348ZM30.25 64.8098V60.7498C30.25 60.4183 30.1183 60.1003 29.8839 59.8659C29.6495 59.6315 29.3315 59.4998 29 59.4998C28.6685 59.4998 28.3505 59.6315 28.1161 59.8659C27.8817 60.1003 27.75 60.4183 27.75 60.7498V64.8098L2.75 50.0373V20.4411L9.20875 24.2573V34.7936C9.20848 35.011 9.26496 35.2248 9.37259 35.4138C9.48023 35.6027 9.63531 35.7604 9.8225 35.871L18.78 41.1648C18.9729 41.2782 19.1925 41.3382 19.4163 41.3385C19.7478 41.3385 20.0657 41.2069 20.3001 40.9724C20.5346 40.738 20.6663 40.4201 20.6663 40.0885V31.0273L27.75 35.2135V55.7498C27.75 56.0813 27.8817 56.3993 28.1161 56.6337C28.3505 56.8681 28.6685 56.9998 29 56.9998C29.3315 56.9998 29.6495 56.8681 29.8839 56.6337C30.1183 56.3993 30.25 56.0813 30.25 55.7498V35.2135L52.905 21.8261C53.1904 21.6573 53.3972 21.3821 53.4797 21.0609C53.5622 20.7398 53.5137 20.399 53.345 20.1136C53.2614 19.9722 53.1509 19.8487 53.0196 19.7501C52.8883 19.6515 52.7389 19.5797 52.5799 19.5389C52.2587 19.4564 51.9179 19.5048 51.6325 19.6736L29 33.0486L21.875 28.8373L46.9175 14.0386L55.25 18.9623V44.9998C53.0345 44.4155 50.7144 44.3485 48.4689 44.8042C46.2234 45.2598 44.1129 46.2258 42.3004 47.6275C40.4879 49.0291 39.0221 50.8289 38.0163 52.8875C37.0105 54.9462 36.4917 57.2086 36.5 59.4998C36.5003 60.023 36.5279 60.5457 36.5825 61.066L30.25 64.8098ZM51.5 71.9998C49.0277 71.9998 46.611 71.2667 44.5554 69.8932C42.4998 68.5197 40.8976 66.5674 39.9515 64.2833C39.0054 61.9993 38.7579 59.4859 39.2402 57.0612C39.7225 54.6364 40.913 52.4091 42.6612 50.661C44.4093 48.9128 46.6366 47.7223 49.0614 47.24C51.4861 46.7577 53.9995 47.0052 56.2835 47.9513C58.5676 48.8974 60.5199 50.4996 61.8934 52.5552C63.2669 54.6108 64 57.0275 64 59.4998C63.9964 62.8139 62.6782 65.9912 60.3348 68.3346C57.9914 70.678 54.8141 71.9962 51.5 71.9998V71.9998Z" fill="white"/>
<path d="M48.6337 59.866C48.398 59.6383 48.0822 59.5123 47.7545 59.5152C47.4267 59.518 47.1132 59.6495 46.8815 59.8813C46.6497 60.113 46.5182 60.4265 46.5154 60.7543C46.5125 61.082 46.6385 61.3978 46.8662 61.6335L48.7412 63.5085C48.9757 63.7429 49.2935 63.8745 49.625 63.8745C49.9564 63.8745 50.2743 63.7429 50.5087 63.5085L56.1337 57.8835C56.3614 57.6478 56.4874 57.332 56.4846 57.0043C56.4817 56.6765 56.3503 56.363 56.1185 56.1313C55.8868 55.8995 55.5732 55.768 55.2455 55.7652C54.9178 55.7623 54.602 55.8883 54.3662 56.116L49.625 60.8573L48.6337 59.866Z" fill="white"/>
</svg>
