<svg width="80" height="48" viewBox="0 0 80 48" fill="none" xmlns="http://www.w3.org/2000/svg">
<path d="M1.44578 8.20792H6.42891V2.19197C6.42891 1.80345 6.58124 1.43084 6.85237 1.15612C7.1235 0.881391 7.49125 0.727051 7.87469 0.727051H59.2771C59.6606 0.727051 60.0283 0.881391 60.2994 1.15612C60.5706 1.43084 60.7229 1.80345 60.7229 2.19197V8.21768H69.8795C70.2042 8.22009 70.5186 8.33315 70.7721 8.53865C71.0256 8.74416 71.2035 9.03015 71.2771 9.35056L73.7349 19.2827H78.5542C78.9377 19.2827 79.3054 19.4371 79.5765 19.7118C79.8477 19.9865 80 20.3591 80 20.7476V38.3267C80 38.7152 79.8477 39.0878 79.5765 39.3626C79.3054 39.6373 78.9377 39.7916 78.5542 39.7916H76.7614C76.6365 41.8152 75.756 43.7148 74.2987 45.1043C72.8414 46.4938 70.9167 47.269 68.9157 47.2725H34.5735C34.19 47.2725 33.8223 47.1182 33.5512 46.8434C33.28 46.5687 33.1277 46.1961 33.1277 45.8076C33.1277 45.4191 33.28 45.0465 33.5512 44.7717C33.8223 44.497 34.19 44.3427 34.5735 44.3427H62.8241C61.7799 43.0475 61.166 41.4514 61.0699 39.7819H30.4964C30.3738 41.8072 29.4943 43.7091 28.0368 45.1007C26.5793 46.4922 24.6532 47.2689 22.6506 47.2725H14.3325C13.9491 47.2725 13.5813 47.1182 13.3102 46.8434C13.0391 46.5687 12.8867 46.1961 12.8867 45.8076C12.8867 45.4191 13.0391 45.0465 13.3102 44.7717C13.5813 44.497 13.9491 44.3427 14.3325 44.3427H16.559C15.5148 43.0475 14.9009 41.4514 14.8048 39.7819H7.87469C7.49125 39.7819 7.1235 39.6275 6.85237 39.3528C6.58124 39.0781 6.42891 38.7055 6.42891 38.317V28.5508C6.42891 28.1623 6.58124 27.7897 6.85237 27.5149C7.1235 27.2402 7.49125 27.0859 7.87469 27.0859H57.8313V25.4647H7.87469C7.49125 25.4647 7.1235 25.3104 6.85237 25.0356C6.58124 24.7609 6.42891 24.3883 6.42891 23.9998V17.6908H3.85542C3.47198 17.6908 3.10423 17.5365 2.8331 17.2618C2.56196 16.9871 2.40964 16.6144 2.40964 16.2259C2.40964 15.8374 2.56196 15.4648 2.8331 15.1901C3.10423 14.9153 3.47198 14.761 3.85542 14.761H6.42891V11.1378H1.44578C1.06233 11.1378 0.694595 10.9834 0.423454 10.7087C0.152321 10.434 0 10.0614 0 9.67284C0 9.28432 0.152321 8.91171 0.423454 8.63698C0.694595 8.36226 1.06233 8.20792 1.44578 8.20792ZM68.7518 11.1378H60.7229V19.273H70.7952L68.7518 11.1378ZM77.1084 22.2028H60.7229V36.852H61.4265V36.8032C61.5426 36.4685 61.6811 36.1422 61.841 35.8266L61.9277 35.6508C62.0934 35.3323 62.2802 35.0256 62.4867 34.7328L62.5928 34.5863C62.8112 34.2901 63.0496 34.0095 63.306 33.7464L63.3735 33.6878C63.6332 33.428 63.9102 33.1866 64.2024 32.9651L64.2795 32.9065C64.5868 32.6885 64.9089 32.4927 65.2434 32.3205L65.3976 32.2326C65.7093 32.0711 66.0313 31.9308 66.3614 31.8127L66.5446 31.7541C66.8915 31.6411 67.2457 31.553 67.6048 31.4904H67.7494C68.5248 31.3602 69.3161 31.3602 70.0916 31.4904H70.2361C70.5952 31.553 70.9495 31.6411 71.2964 31.7541L71.4795 31.8127C71.8099 31.934 72.1319 32.0776 72.4434 32.2424L72.5976 32.3303C72.9321 32.5024 73.2542 32.6982 73.5614 32.9163L73.6289 32.9651C73.9248 33.1893 74.205 33.4341 74.4675 33.6976L74.5253 33.7464C74.7855 34.0122 75.027 34.2962 75.2482 34.596L75.3446 34.723C75.5568 35.0344 75.7469 35.3608 75.9133 35.6996L75.9904 35.8559C76.156 36.1902 76.2977 36.5362 76.4145 36.8911H77.1084V22.2028ZM73.8988 39.2936C73.8987 39.0385 73.8793 38.7839 73.841 38.5318C73.6672 37.3353 73.0745 36.2421 72.1712 35.4516C71.2678 34.6612 70.114 34.2263 68.9205 34.2263C67.7269 34.2263 66.5732 34.6612 65.6698 35.4516C64.7665 36.2421 64.1738 37.3353 64 38.5318C63.962 38.7806 63.9426 39.032 63.9422 39.2838C63.9422 40.6229 64.4672 41.9072 65.4017 42.854C66.3362 43.8009 67.6037 44.3329 68.9253 44.3329C70.2469 44.3329 71.5144 43.8009 72.4489 42.854C73.3834 41.9072 73.9084 40.6229 73.9084 39.2838L73.8988 39.2936ZM27.6337 39.2936C27.6336 39.0385 27.6143 38.7839 27.5759 38.5318C27.4021 37.3353 26.8094 36.2421 25.9061 35.4516C25.0028 34.6612 23.849 34.2263 22.6554 34.2263C21.4618 34.2263 20.3081 34.6612 19.4048 35.4516C18.5014 36.2421 17.9087 37.3353 17.7349 38.5318C17.6969 38.7806 17.6776 39.032 17.6771 39.2838C17.6771 40.6229 18.2021 41.9072 19.1366 42.854C20.0711 43.8009 21.3386 44.3329 22.6602 44.3329C23.9818 44.3329 25.2493 43.8009 26.1838 42.854C27.1184 41.9072 27.6434 40.6229 27.6434 39.2838L27.6337 39.2936ZM9.32048 30.0157V36.852H15.1614V36.8032C15.2776 36.4685 15.416 36.1422 15.5759 35.8266L15.6627 35.6508C15.8283 35.3323 16.0151 35.0256 16.2217 34.7328L16.3277 34.5863C16.5462 34.2901 16.7845 34.0095 17.041 33.7464L17.1084 33.6878C17.3681 33.428 17.6451 33.1866 17.9373 32.9651L18.0145 32.9065C18.3218 32.6885 18.6438 32.4927 18.9783 32.3205L19.1325 32.2326C19.4442 32.0711 19.7662 31.9308 20.0964 31.8127L20.2795 31.7541C20.6264 31.6411 20.9807 31.553 21.3398 31.4904H21.4843C22.2598 31.3602 23.0511 31.3602 23.8265 31.4904H23.9711C24.3302 31.553 24.6845 31.6411 25.0313 31.7541L25.2145 31.8127C25.5448 31.934 25.8668 32.0776 26.1783 32.2424L26.3325 32.3303C26.667 32.5024 26.9891 32.6982 27.2964 32.9163L27.3639 32.9651C27.6597 33.1893 27.9399 33.4341 28.2024 33.6976L28.2602 33.7464C28.5204 34.0122 28.7619 34.2962 28.9831 34.596L29.0795 34.723C29.2917 35.0344 29.4818 35.3608 29.6482 35.6996L29.7253 35.8559C29.8909 36.1902 30.0327 36.5362 30.1494 36.8911H57.8313V30.0548L9.32048 30.0157ZM9.32048 14.761H21.3687C21.7521 14.761 22.1199 14.9153 22.391 15.1901C22.6621 15.4648 22.8145 15.8374 22.8145 16.2259C22.8145 16.6144 22.6621 16.9871 22.391 17.2618C22.1199 17.5365 21.7521 17.6908 21.3687 17.6908H9.32048V22.5739H57.8313V11.1378H50.2361C49.8527 11.1378 49.485 10.9834 49.2138 10.7087C48.9427 10.434 48.7904 10.0614 48.7904 9.67284C48.7904 9.28432 48.9427 8.91171 49.2138 8.63698C49.485 8.36226 49.8527 8.20792 50.2361 8.20792H57.8313V3.65689H9.32048V8.21768H13.9759C14.3593 8.21768 14.7271 8.37202 14.9982 8.64675C15.2694 8.92148 15.4217 9.29409 15.4217 9.68261C15.4217 10.0711 15.2694 10.4437 14.9982 10.7185C14.7271 10.9932 14.3593 11.1475 13.9759 11.1475H9.32048V14.761Z" fill="white"/>
</svg>
