<svg width="63" height="64" viewBox="0 0 63 64" fill="none" xmlns="http://www.w3.org/2000/svg">
<path d="M45.7964 36.1598L44.2901 37.6797L39.137 32.5597L39.2162 32.4797L45.0036 26.6397L48.3333 26.7997C51.5838 26.9597 54.6757 25.2797 56.2613 22.3997L62.2072 11.9997L58.2433 7.99975L51.6631 14.6397L48.1748 11.1997L54.8343 4.71975L50.3946 0.239746L40.4054 6.47975C37.7892 8.07975 36.2036 11.1197 36.2829 14.2397L36.4415 17.9997L30.5748 23.8397L30.4955 23.9198L20.1892 13.5197L16.6216 5.11975L6.07749 1.91975L2.19281 5.83975L5.36398 16.4797L13.6883 19.9198L23.9946 30.3197L23.3604 30.9597L17.573 36.7998L14.2433 36.6397C10.9928 36.4797 7.90092 38.1597 6.31533 41.0397L0.369385 51.4398L4.33335 55.4398L10.9135 48.7998L14.4018 52.3197L7.74236 58.7997L12.182 63.2797L22.1712 57.0398C24.7874 55.4398 26.373 52.3998 26.2937 49.2798L26.1352 45.5998L32.0018 39.7598L32.5568 39.1997L37.7892 44.3198L36.2036 45.9198L50.4739 60.1597C51.8216 61.5197 53.5658 62.1597 55.3099 62.1597C57.0541 62.1597 58.7982 61.4397 60.146 60.1597C61.4144 58.8797 62.1279 57.1997 62.1279 55.2797C62.1279 53.3597 61.4144 51.6797 60.146 50.3997L45.7964 36.1598ZM14.9568 17.5997L7.50452 14.3197L5.12614 6.63975L6.79101 4.95975L14.5604 7.11975L17.573 14.7997L28.1171 25.4397L25.3424 28.2397L14.9568 17.5997ZM38.582 18.7997L38.4234 13.9197C38.4234 11.6797 39.5333 9.51975 41.3568 8.39975L49.8397 3.19975L51.346 4.55975L44.7658 11.1997L51.8216 18.3197L58.4018 11.6797L59.2739 12.5597L54.3586 21.1997C53.0901 23.1997 51.0288 24.4797 48.6505 24.3197L44.2108 24.0797L23.9153 44.7198L23.9946 49.5998C23.9946 51.8398 22.8847 53.9998 21.0613 55.1198L12.6577 60.3997L11.1514 59.0398L17.7315 52.3997L10.6757 45.2798L4.09551 51.9198L3.22344 51.0398L8.13875 42.3997C9.40722 40.3997 11.4685 39.1198 13.8469 39.2798L18.2865 39.5198L38.582 18.7997ZM34.3802 37.5998L37.4721 34.4797L42.6252 39.4398L39.5333 42.5597L34.3802 37.5998ZM58.4811 58.3997C56.737 60.1597 54.0415 60.1597 52.2973 58.3997L39.7712 45.9198L45.955 39.6797L58.4811 52.1597C59.1946 53.0397 59.7496 53.9997 59.7496 55.2797C59.7496 56.5597 59.3532 57.5197 58.4811 58.3997Z" fill="white"/>
</svg>
