<svg width="75" height="76" viewBox="0 0 75 76" fill="none" xmlns="http://www.w3.org/2000/svg">
<mask id="path-1-outside-1_208_115" maskUnits="userSpaceOnUse" x="27.8524" y="28.1426" width="47" height="47" fill="black">
<rect fill="white" x="27.8524" y="28.1426" width="47" height="47"/>
<path d="M34.1097 56.0719C34.1085 56.4671 34.1857 56.8587 34.3368 57.2239C34.4878 57.5892 34.7097 57.9209 34.9897 58.1999L35.7097 58.9199C35.9899 59.2004 36.323 59.4227 36.6896 59.5737C37.0562 59.7248 37.4492 59.8016 37.8457 59.7999C38.25 59.8015 38.6503 59.7198 39.0217 59.5599L42.4537 62.9999C43.781 64.3334 45.3595 65.3905 47.0979 66.11C48.8364 66.8296 50.7002 67.1973 52.5817 67.1919C53.9745 67.1962 55.3602 66.994 56.6937 66.5919L60.9097 70.7999C61.0596 70.9489 61.2623 71.0325 61.4737 71.0325C61.685 71.0325 61.8878 70.9489 62.0377 70.7999L63.3897 69.4479L68.4777 74.5359C68.5524 74.61 68.6411 74.6687 68.7386 74.7085C68.836 74.7483 68.9404 74.7685 69.0457 74.7679C69.2556 74.767 69.4567 74.6837 69.6057 74.5359L74.2537 69.8879C74.4027 69.738 74.4863 69.5352 74.4863 69.3239C74.4863 69.1125 74.4027 68.9098 74.2537 68.7599L69.1657 63.6719L70.5097 62.3519C70.5871 62.2772 70.6487 62.1878 70.6908 62.0888C70.7328 61.9898 70.7545 61.8834 70.7545 61.7759C70.7545 61.6683 70.7328 61.5619 70.6908 61.4629C70.6487 61.364 70.5871 61.2745 70.5097 61.1999L66.2697 56.9599C66.6719 55.6264 66.8741 54.2406 66.8697 52.8479C66.8751 50.9664 66.5074 49.1025 65.7879 47.3641C65.0683 45.6257 64.0112 44.0471 62.6777 42.7199L59.3097 39.3119C59.4696 38.9405 59.5513 38.5402 59.5497 38.1359C59.5515 37.7393 59.4746 37.3464 59.3235 36.9798C59.1725 36.6131 58.9503 36.2801 58.6697 35.9999L57.9497 35.2799C57.3743 34.7334 56.6112 34.4288 55.8177 34.4288C55.0242 34.4288 54.261 34.7334 53.6857 35.2799L52.8217 36.1439L46.9417 30.2558C46.6269 29.9138 46.2462 29.6389 45.8225 29.4477C45.3988 29.2565 44.9408 29.153 44.476 29.1433C44.0113 29.1337 43.5494 29.2181 43.1181 29.3915C42.6868 29.5649 42.295 29.8238 41.9663 30.1525C41.6376 30.4812 41.3788 30.873 41.2053 31.3042C41.0319 31.7355 40.9475 32.1974 40.9572 32.6622C40.9668 33.127 41.0704 33.585 41.2615 34.0087C41.4527 34.4324 41.7276 34.8131 42.0697 35.1279L47.9577 41.0159L40.7577 48.2159L34.8377 42.3199C34.5229 41.9778 34.1422 41.7029 33.7185 41.5117C33.2948 41.3205 32.8368 41.217 32.372 41.2073C31.9073 41.1977 31.4454 41.2821 31.0141 41.4555C30.5828 41.6289 30.191 41.8878 29.8623 42.2165C29.5336 42.5452 29.2748 42.937 29.1013 43.3683C28.9279 43.7995 28.8435 44.2615 28.8532 44.7262C28.8628 45.191 28.9664 45.649 29.1575 46.0727C29.3487 46.4964 29.6236 46.8771 29.9657 47.1919L35.8537 53.0719L34.9897 53.9359C34.7091 54.2161 34.4869 54.5491 34.3358 54.9158C34.1848 55.2824 34.1079 55.6753 34.1097 56.0719ZM72.5817 69.3599L69.0697 72.8719L64.5497 68.3519L68.0617 64.8399L72.5817 69.3599ZM68.8457 61.7919L67.4937 63.1359L62.8457 67.7839L61.5017 69.1359L58.3417 65.9999C61.6372 64.5582 64.2681 61.9273 65.7097 58.6319L68.8457 61.7919ZM61.5737 43.8799C62.7997 45.0505 63.7793 46.4544 64.4551 48.009C65.1308 49.5636 65.489 51.2377 65.5085 52.9327C65.5281 54.6277 65.2087 56.3095 64.569 57.8794C63.9294 59.4492 62.9824 60.8753 61.7838 62.074C60.5851 63.2726 59.159 64.2196 57.5892 64.8592C56.0194 65.4989 54.3375 65.8183 52.6425 65.7987C50.9475 65.7791 49.2735 65.421 47.7188 64.7452C46.1642 64.0695 44.7603 63.0899 43.5897 61.8639L40.3097 58.5839L58.2937 40.5999L61.5737 43.8799ZM43.1577 33.9999C42.8147 33.6525 42.6224 33.184 42.6224 32.6959C42.6224 32.2077 42.8147 31.7392 43.1577 31.3919C43.5051 31.0489 43.9735 30.8566 44.4617 30.8566C44.9498 30.8566 45.4183 31.0489 45.7657 31.3919L51.6537 37.2799L49.0457 39.8799L43.1577 33.9999ZM31.1017 46.0559C30.7568 45.7095 30.5631 45.2406 30.5631 44.7519C30.5631 44.2631 30.7568 43.7942 31.1017 43.4479C31.4491 43.1049 31.9175 42.9126 32.4057 42.9126C32.8938 42.9126 33.3623 43.1049 33.7097 43.4479L39.5897 49.3359L36.9897 51.9439L31.1017 46.0559ZM36.1097 55.0719L37.5337 53.6399L41.2697 49.9039L49.6137 41.5759L53.3497 37.8399L54.7817 36.3999C54.9118 36.2668 55.0675 36.1614 55.2393 36.09C55.4111 36.0185 55.5956 35.9824 55.7817 35.9839C55.9666 35.9826 56.1498 36.0188 56.3203 36.0903C56.4908 36.1618 56.645 36.2671 56.7737 36.3999L57.5017 37.1199C57.6322 37.2515 57.7354 37.4076 57.8054 37.5792C57.8754 37.7508 57.9108 37.9345 57.9097 38.1199C57.9107 38.304 57.8751 38.4864 57.8051 38.6567C57.735 38.827 57.6319 38.9817 57.5017 39.1119L38.8377 57.7919C38.5696 58.0486 38.2128 58.1919 37.8417 58.1919C37.4705 58.1919 37.1137 58.0486 36.8457 57.7919L36.1257 57.0639C35.9929 56.9352 35.8876 56.781 35.8161 56.6105C35.7446 56.44 35.7084 56.2567 35.7097 56.0719C35.7061 55.8869 35.7397 55.7031 35.8084 55.5314C35.8771 55.3596 35.9796 55.2033 36.1097 55.0719Z"/>
</mask>
<path d="M34.1097 56.0719C34.1085 56.4671 34.1857 56.8587 34.3368 57.2239C34.4878 57.5892 34.7097 57.9209 34.9897 58.1999L35.7097 58.9199C35.9899 59.2004 36.323 59.4227 36.6896 59.5737C37.0562 59.7248 37.4492 59.8016 37.8457 59.7999C38.25 59.8015 38.6503 59.7198 39.0217 59.5599L42.4537 62.9999C43.781 64.3334 45.3595 65.3905 47.0979 66.11C48.8364 66.8296 50.7002 67.1973 52.5817 67.1919C53.9745 67.1962 55.3602 66.994 56.6937 66.5919L60.9097 70.7999C61.0596 70.9489 61.2623 71.0325 61.4737 71.0325C61.685 71.0325 61.8878 70.9489 62.0377 70.7999L63.3897 69.4479L68.4777 74.5359C68.5524 74.61 68.6411 74.6687 68.7386 74.7085C68.836 74.7483 68.9404 74.7685 69.0457 74.7679C69.2556 74.767 69.4567 74.6837 69.6057 74.5359L74.2537 69.8879C74.4027 69.738 74.4863 69.5352 74.4863 69.3239C74.4863 69.1125 74.4027 68.9098 74.2537 68.7599L69.1657 63.6719L70.5097 62.3519C70.5871 62.2772 70.6487 62.1878 70.6908 62.0888C70.7328 61.9898 70.7545 61.8834 70.7545 61.7759C70.7545 61.6683 70.7328 61.5619 70.6908 61.4629C70.6487 61.364 70.5871 61.2745 70.5097 61.1999L66.2697 56.9599C66.6719 55.6264 66.8741 54.2406 66.8697 52.8479C66.8751 50.9664 66.5074 49.1025 65.7879 47.3641C65.0683 45.6257 64.0112 44.0471 62.6777 42.7199L59.3097 39.3119C59.4696 38.9405 59.5513 38.5402 59.5497 38.1359C59.5515 37.7393 59.4746 37.3464 59.3235 36.9798C59.1725 36.6131 58.9503 36.2801 58.6697 35.9999L57.9497 35.2799C57.3743 34.7334 56.6112 34.4288 55.8177 34.4288C55.0242 34.4288 54.261 34.7334 53.6857 35.2799L52.8217 36.1439L46.9417 30.2558C46.6269 29.9138 46.2462 29.6389 45.8225 29.4477C45.3988 29.2565 44.9408 29.153 44.476 29.1433C44.0113 29.1337 43.5494 29.2181 43.1181 29.3915C42.6868 29.5649 42.295 29.8238 41.9663 30.1525C41.6376 30.4812 41.3788 30.873 41.2053 31.3042C41.0319 31.7355 40.9475 32.1974 40.9572 32.6622C40.9668 33.127 41.0704 33.585 41.2615 34.0087C41.4527 34.4324 41.7276 34.8131 42.0697 35.1279L47.9577 41.0159L40.7577 48.2159L34.8377 42.3199C34.5229 41.9778 34.1422 41.7029 33.7185 41.5117C33.2948 41.3205 32.8368 41.217 32.372 41.2073C31.9073 41.1977 31.4454 41.2821 31.0141 41.4555C30.5828 41.6289 30.191 41.8878 29.8623 42.2165C29.5336 42.5452 29.2748 42.937 29.1013 43.3683C28.9279 43.7995 28.8435 44.2615 28.8532 44.7262C28.8628 45.191 28.9664 45.649 29.1575 46.0727C29.3487 46.4964 29.6236 46.8771 29.9657 47.1919L35.8537 53.0719L34.9897 53.9359C34.7091 54.2161 34.4869 54.5491 34.3358 54.9158C34.1848 55.2824 34.1079 55.6753 34.1097 56.0719ZM72.5817 69.3599L69.0697 72.8719L64.5497 68.3519L68.0617 64.8399L72.5817 69.3599ZM68.8457 61.7919L67.4937 63.1359L62.8457 67.7839L61.5017 69.1359L58.3417 65.9999C61.6372 64.5582 64.2681 61.9273 65.7097 58.6319L68.8457 61.7919ZM61.5737 43.8799C62.7997 45.0505 63.7793 46.4544 64.4551 48.009C65.1308 49.5636 65.489 51.2377 65.5085 52.9327C65.5281 54.6277 65.2087 56.3095 64.569 57.8794C63.9294 59.4492 62.9824 60.8753 61.7838 62.074C60.5851 63.2726 59.159 64.2196 57.5892 64.8592C56.0194 65.4989 54.3375 65.8183 52.6425 65.7987C50.9475 65.7791 49.2735 65.421 47.7188 64.7452C46.1642 64.0695 44.7603 63.0899 43.5897 61.8639L40.3097 58.5839L58.2937 40.5999L61.5737 43.8799ZM43.1577 33.9999C42.8147 33.6525 42.6224 33.184 42.6224 32.6959C42.6224 32.2077 42.8147 31.7392 43.1577 31.3919C43.5051 31.0489 43.9735 30.8566 44.4617 30.8566C44.9498 30.8566 45.4183 31.0489 45.7657 31.3919L51.6537 37.2799L49.0457 39.8799L43.1577 33.9999ZM31.1017 46.0559C30.7568 45.7095 30.5631 45.2406 30.5631 44.7519C30.5631 44.2631 30.7568 43.7942 31.1017 43.4479C31.4491 43.1049 31.9175 42.9126 32.4057 42.9126C32.8938 42.9126 33.3623 43.1049 33.7097 43.4479L39.5897 49.3359L36.9897 51.9439L31.1017 46.0559ZM36.1097 55.0719L37.5337 53.6399L41.2697 49.9039L49.6137 41.5759L53.3497 37.8399L54.7817 36.3999C54.9118 36.2668 55.0675 36.1614 55.2393 36.09C55.4111 36.0185 55.5956 35.9824 55.7817 35.9839C55.9666 35.9826 56.1498 36.0188 56.3203 36.0903C56.4908 36.1618 56.645 36.2671 56.7737 36.3999L57.5017 37.1199C57.6322 37.2515 57.7354 37.4076 57.8054 37.5792C57.8754 37.7508 57.9108 37.9345 57.9097 38.1199C57.9107 38.304 57.8751 38.4864 57.8051 38.6567C57.735 38.827 57.6319 38.9817 57.5017 39.1119L38.8377 57.7919C38.5696 58.0486 38.2128 58.1919 37.8417 58.1919C37.4705 58.1919 37.1137 58.0486 36.8457 57.7919L36.1257 57.0639C35.9929 56.9352 35.8876 56.781 35.8161 56.6105C35.7446 56.44 35.7084 56.2567 35.7097 56.0719C35.7061 55.8869 35.7397 55.7031 35.8084 55.5314C35.8771 55.3596 35.9796 55.2033 36.1097 55.0719Z" fill="white"/>
<path d="M34.1097 56.0719C34.1085 56.4671 34.1857 56.8587 34.3368 57.2239C34.4878 57.5892 34.7097 57.9209 34.9897 58.1999L35.7097 58.9199C35.9899 59.2004 36.323 59.4227 36.6896 59.5737C37.0562 59.7248 37.4492 59.8016 37.8457 59.7999C38.25 59.8015 38.6503 59.7198 39.0217 59.5599L42.4537 62.9999C43.781 64.3334 45.3595 65.3905 47.0979 66.11C48.8364 66.8296 50.7002 67.1973 52.5817 67.1919C53.9745 67.1962 55.3602 66.994 56.6937 66.5919L60.9097 70.7999C61.0596 70.9489 61.2623 71.0325 61.4737 71.0325C61.685 71.0325 61.8878 70.9489 62.0377 70.7999L63.3897 69.4479L68.4777 74.5359C68.5524 74.61 68.6411 74.6687 68.7386 74.7085C68.836 74.7483 68.9404 74.7685 69.0457 74.7679C69.2556 74.767 69.4567 74.6837 69.6057 74.5359L74.2537 69.8879C74.4027 69.738 74.4863 69.5352 74.4863 69.3239C74.4863 69.1125 74.4027 68.9098 74.2537 68.7599L69.1657 63.6719L70.5097 62.3519C70.5871 62.2772 70.6487 62.1878 70.6908 62.0888C70.7328 61.9898 70.7545 61.8834 70.7545 61.7759C70.7545 61.6683 70.7328 61.5619 70.6908 61.4629C70.6487 61.364 70.5871 61.2745 70.5097 61.1999L66.2697 56.9599C66.6719 55.6264 66.8741 54.2406 66.8697 52.8479C66.8751 50.9664 66.5074 49.1025 65.7879 47.3641C65.0683 45.6257 64.0112 44.0471 62.6777 42.7199L59.3097 39.3119C59.4696 38.9405 59.5513 38.5402 59.5497 38.1359C59.5515 37.7393 59.4746 37.3464 59.3235 36.9798C59.1725 36.6131 58.9503 36.2801 58.6697 35.9999L57.9497 35.2799C57.3743 34.7334 56.6112 34.4288 55.8177 34.4288C55.0242 34.4288 54.261 34.7334 53.6857 35.2799L52.8217 36.1439L46.9417 30.2558C46.6269 29.9138 46.2462 29.6389 45.8225 29.4477C45.3988 29.2565 44.9408 29.153 44.476 29.1433C44.0113 29.1337 43.5494 29.2181 43.1181 29.3915C42.6868 29.5649 42.295 29.8238 41.9663 30.1525C41.6376 30.4812 41.3788 30.873 41.2053 31.3042C41.0319 31.7355 40.9475 32.1974 40.9572 32.6622C40.9668 33.127 41.0704 33.585 41.2615 34.0087C41.4527 34.4324 41.7276 34.8131 42.0697 35.1279L47.9577 41.0159L40.7577 48.2159L34.8377 42.3199C34.5229 41.9778 34.1422 41.7029 33.7185 41.5117C33.2948 41.3205 32.8368 41.217 32.372 41.2073C31.9073 41.1977 31.4454 41.2821 31.0141 41.4555C30.5828 41.6289 30.191 41.8878 29.8623 42.2165C29.5336 42.5452 29.2748 42.937 29.1013 43.3683C28.9279 43.7995 28.8435 44.2615 28.8532 44.7262C28.8628 45.191 28.9664 45.649 29.1575 46.0727C29.3487 46.4964 29.6236 46.8771 29.9657 47.1919L35.8537 53.0719L34.9897 53.9359C34.7091 54.2161 34.4869 54.5491 34.3358 54.9158C34.1848 55.2824 34.1079 55.6753 34.1097 56.0719ZM72.5817 69.3599L69.0697 72.8719L64.5497 68.3519L68.0617 64.8399L72.5817 69.3599ZM68.8457 61.7919L67.4937 63.1359L62.8457 67.7839L61.5017 69.1359L58.3417 65.9999C61.6372 64.5582 64.2681 61.9273 65.7097 58.6319L68.8457 61.7919ZM61.5737 43.8799C62.7997 45.0505 63.7793 46.4544 64.4551 48.009C65.1308 49.5636 65.489 51.2377 65.5085 52.9327C65.5281 54.6277 65.2087 56.3095 64.569 57.8794C63.9294 59.4492 62.9824 60.8753 61.7838 62.074C60.5851 63.2726 59.159 64.2196 57.5892 64.8592C56.0194 65.4989 54.3375 65.8183 52.6425 65.7987C50.9475 65.7791 49.2735 65.421 47.7188 64.7452C46.1642 64.0695 44.7603 63.0899 43.5897 61.8639L40.3097 58.5839L58.2937 40.5999L61.5737 43.8799ZM43.1577 33.9999C42.8147 33.6525 42.6224 33.184 42.6224 32.6959C42.6224 32.2077 42.8147 31.7392 43.1577 31.3919C43.5051 31.0489 43.9735 30.8566 44.4617 30.8566C44.9498 30.8566 45.4183 31.0489 45.7657 31.3919L51.6537 37.2799L49.0457 39.8799L43.1577 33.9999ZM31.1017 46.0559C30.7568 45.7095 30.5631 45.2406 30.5631 44.7519C30.5631 44.2631 30.7568 43.7942 31.1017 43.4479C31.4491 43.1049 31.9175 42.9126 32.4057 42.9126C32.8938 42.9126 33.3623 43.1049 33.7097 43.4479L39.5897 49.3359L36.9897 51.9439L31.1017 46.0559ZM36.1097 55.0719L37.5337 53.6399L41.2697 49.9039L49.6137 41.5759L53.3497 37.8399L54.7817 36.3999C54.9118 36.2668 55.0675 36.1614 55.2393 36.09C55.4111 36.0185 55.5956 35.9824 55.7817 35.9839C55.9666 35.9826 56.1498 36.0188 56.3203 36.0903C56.4908 36.1618 56.645 36.2671 56.7737 36.3999L57.5017 37.1199C57.6322 37.2515 57.7354 37.4076 57.8054 37.5792C57.8754 37.7508 57.9108 37.9345 57.9097 38.1199C57.9107 38.304 57.8751 38.4864 57.8051 38.6567C57.735 38.827 57.6319 38.9817 57.5017 39.1119L38.8377 57.7919C38.5696 58.0486 38.2128 58.1919 37.8417 58.1919C37.4705 58.1919 37.1137 58.0486 36.8457 57.7919L36.1257 57.0639C35.9929 56.9352 35.8876 56.781 35.8161 56.6105C35.7446 56.44 35.7084 56.2567 35.7097 56.0719C35.7061 55.8869 35.7397 55.7031 35.8084 55.5314C35.8771 55.3596 35.9796 55.2033 36.1097 55.0719Z" stroke="white" stroke-width="0.6" mask="url(#path-1-outside-1_208_115)"/>
<path d="M17.4359 40.8502L17.4356 40.8499L16.7157 40.13L17.4359 40.8502ZM17.4359 40.8502C18.0306 41.4414 18.8351 41.7733 19.6737 41.7733C20.5123 41.7733 21.3168 41.4414 21.9114 40.8502L21.9119 40.8498M17.4359 40.8502L21.9119 40.8498M21.9119 40.8498L40.5359 22.1698L40.5361 22.1696M21.9119 40.8498L40.5361 22.1696M40.5361 22.1696C41.1273 21.5749 41.4591 20.7704 41.4591 19.9319C41.4591 19.0933 41.1273 18.2888 40.5361 17.6941L40.5358 17.6938M40.5361 22.1696L40.5358 17.6938M40.5358 17.6938L39.8158 16.9738L39.8158 16.9738M40.5358 17.6938L39.8158 16.9738M39.8158 16.9738L39.8133 16.9714M39.8158 16.9738L39.8133 16.9714M39.8133 16.9714C39.3619 16.5404 38.7959 16.2487 38.183 16.1312C37.6028 16.02 37.004 16.0692 36.4508 16.2728L33.072 12.894C33.0719 12.894 33.0719 12.8939 33.0718 12.8938C31.7306 11.5464 30.1355 10.4782 28.3788 9.7511C26.6222 9.02402 24.7388 8.65244 22.8377 8.65785M39.8133 16.9714L14.6154 5.09347M14.6154 5.09347L14.6157 5.09369L18.7684 9.23858C20.0895 8.84925 21.4601 8.65359 22.8377 8.65785M14.6154 5.09347C14.4374 4.91653 14.1967 4.81722 13.9457 4.81722C13.6947 4.81722 13.4539 4.91653 13.2759 5.09347L13.2756 5.09379M14.6154 5.09347L13.2756 5.09379M22.8377 8.65785C22.8378 8.65785 22.838 8.65785 22.8382 8.65785L22.8377 8.80785L22.8373 8.65785C22.8374 8.65785 22.8375 8.65785 22.8377 8.65785ZM13.2756 5.09379L12.0298 6.33964M13.2756 5.09379L12.0298 6.33964M12.0298 6.33964L7.02384 1.32587L7.02344 1.32547C6.84545 1.14853 6.60467 1.04922 6.35369 1.04922C6.10272 1.04922 5.86194 1.14853 5.68394 1.32547L5.68363 1.32579L1.03563 5.97379L1.03531 5.9741C0.858372 6.1521 0.759058 6.39288 0.759058 6.64385C0.759058 6.89483 0.858372 7.13561 1.03531 7.3136L1.03563 7.31392L6.01882 12.2971L4.80389 13.5415C4.71275 13.6298 4.64021 13.7354 4.59057 13.8522C4.54062 13.9698 4.51487 14.0962 4.51487 14.2239C4.51487 14.3516 4.54062 14.4779 4.59057 14.5955C4.64033 14.7125 4.7131 14.8184 4.80456 14.9069C4.8049 14.9072 4.80525 14.9075 4.8056 14.9079L8.9804 19.0827C8.59107 20.4037 8.39542 21.7744 8.39969 23.1519M12.0298 6.33964L16.7156 40.1299C16.4211 39.8357 16.1877 39.486 16.0292 39.1011C15.8706 38.7163 15.7899 38.304 15.7917 37.8878M8.39969 23.1519C8.39969 23.1517 8.39969 23.1516 8.39969 23.1514L8.54969 23.1519L8.39969 23.1523C8.39969 23.1522 8.39969 23.152 8.39969 23.1519ZM8.39969 23.1519C8.39429 25.053 8.76586 26.9364 9.49293 28.693C10.2201 30.4497 11.2883 32.0449 12.6359 33.3862L16.0049 36.7474C15.8627 37.1104 15.7902 37.4973 15.7917 37.8878M15.7917 37.8878C15.7917 37.8876 15.7917 37.8874 15.7917 37.8872L15.9417 37.8879L15.7917 37.8885C15.7917 37.8882 15.7917 37.888 15.7917 37.8878ZM37.5729 17.9499L37.5746 17.9499C37.7402 17.9488 37.9044 17.9805 38.0577 18.043C38.2108 18.1055 38.35 18.1975 38.4675 18.3138C38.4677 18.314 38.4679 18.3142 38.4681 18.3144L39.187 19.0413L39.187 19.0414L39.1893 19.0436C39.3075 19.1581 39.4013 19.2955 39.465 19.4473C39.5286 19.5991 39.5608 19.7622 39.5596 19.9268L39.5597 19.9307C39.5629 20.0956 39.5329 20.2595 39.4717 20.4126C39.4105 20.5656 39.3193 20.7048 39.2034 20.822C39.2033 20.8221 39.2032 20.8222 39.2031 20.8223L20.5334 39.4921C20.5331 39.4924 20.5327 39.4927 20.5324 39.493C20.2934 39.7239 19.9741 39.853 19.6417 39.853C19.3092 39.853 18.9897 39.7238 18.7507 39.4927C18.7505 39.4925 18.7502 39.4923 18.75 39.4921L18.0242 38.7743C18.024 38.7741 18.0238 38.7739 18.0237 38.7737C17.9073 38.6562 17.8153 38.5169 17.7529 38.3639C17.6903 38.2105 17.6587 38.0464 17.6597 37.8808L17.6597 37.8791C17.6588 37.7148 17.6905 37.552 17.753 37.4C17.8155 37.2481 17.9075 37.1101 18.0237 36.994L18.0238 36.9939L36.6878 18.3139C36.8039 18.1977 36.9419 18.1057 37.0939 18.0432C37.2458 17.9807 37.4086 17.949 37.5729 17.9499ZM22.8377 10.5579L22.8382 10.5579C24.4895 10.552 26.1254 10.8746 27.6508 11.507C29.1762 12.1394 30.5605 13.0689 31.7232 14.2415L31.7236 14.2419L34.8976 17.4159L17.1257 35.1877L13.9518 32.0138C13.9518 32.0138 13.9518 32.0138 13.9518 32.0138C12.1948 30.2559 10.9984 28.0165 10.5138 25.5788C10.0291 23.1411 10.2781 20.6144 11.2291 18.3182C12.1801 16.0219 13.7905 14.0591 15.8567 12.6778C17.923 11.2965 20.3523 10.5588 22.8377 10.5579ZM12.6796 8.3221L12.6801 8.3216L13.9184 7.07589L16.8167 9.95214C13.6472 11.3965 11.106 13.9378 9.66173 17.1074L6.77 14.2083L8.01544 12.9702L8.01558 12.9701L12.6796 8.3221ZM6.34969 3.33999L10.6576 7.64785L7.35769 10.9477L3.04982 6.63985L6.34969 3.33999Z" fill="white" stroke="white" stroke-width="0.3"/>
</svg>
