<svg width="70" height="70" viewBox="0 0 70 70" fill="none" xmlns="http://www.w3.org/2000/svg">
<path d="M66.5475 61.7767C68.4025 61.7767 69.9276 63.3044 69.9276 65.1623C69.9276 67.0202 68.4025 68.5476 66.5475 68.5476H5.63578C3.78078 68.5476 2.25537 67.0202 2.25537 65.1623C2.25537 63.3044 3.78078 61.7767 5.63578 61.7767H66.5475ZM66.5475 64.0446H5.63578C4.99125 64.0446 4.52012 64.5171 4.52012 65.1623C4.52012 65.8079 4.99159 66.2961 5.63578 66.2961H66.5475C67.192 66.2961 67.6797 65.8079 67.6797 65.1623C67.6797 64.5168 67.1913 64.0446 66.5475 64.0446Z" fill="#28285A"/>
<path d="M7.90017 14.3285C6.04525 14.3285 4.52002 15.8562 4.52002 17.7141V26.7534C4.52002 28.6112 6.04525 30.139 7.90017 30.139H30.4633C32.3182 30.139 33.8434 28.6112 33.8434 26.7534V17.7141C33.8434 15.8562 32.3182 14.3285 30.4633 14.3285H7.90017ZM7.90017 16.5967H30.4633C31.1078 16.5967 31.5789 17.0689 31.5789 17.7141V26.7534C31.5789 27.399 31.1075 27.8875 30.4633 27.8875H7.90017C7.25563 27.8875 6.76786 27.3983 6.76786 26.7534V17.7141C6.76786 17.0685 7.2564 16.5967 7.90017 16.5967Z" fill="#28285A"/>
<path d="M29.3309 29.0216V62.9108H31.5789V29.0216H29.3309Z" fill="#28285A"/>
<path d="M6.76794 29.0216V62.9108H9.0327V29.0216H6.76794Z" fill="#28285A"/>
<path d="M19.1735 3.03857C12.3349 3.03857 6.76794 8.61393 6.76794 15.4632H9.0327C9.03261 9.83492 13.554 5.28981 19.1735 5.28981C24.7931 5.28981 29.3311 9.83492 29.3311 15.4632H31.579C31.579 8.61393 26.0121 3.03857 19.1735 3.03857Z" fill="#28285A"/>
<path d="M19.157 0.769607C19.0081 0.771212 18.861 0.80252 18.7242 0.861335C18.5874 0.920149 18.4635 1.0053 18.3598 1.11228C18.2561 1.21926 18.1746 1.34597 18.1199 1.48467C18.0652 1.62336 18.0386 1.77128 18.0413 1.92037V4.15545C18.0404 4.30496 18.069 4.45302 18.1255 4.59142C18.182 4.72981 18.2652 4.85567 18.3705 4.96171C18.4757 5.06776 18.6008 5.15185 18.7386 5.20928C18.8765 5.2667 19.0244 5.29631 19.1736 5.29631C19.3229 5.29631 19.4707 5.2667 19.6085 5.20928C19.7464 5.15185 19.8715 5.06776 19.9767 4.96171C20.0819 4.85567 20.1652 4.72981 20.2217 4.59142C20.2782 4.45302 20.3067 4.30496 20.3058 4.15545V1.92037C20.3087 1.76847 20.281 1.61775 20.2243 1.47685C20.1675 1.33594 20.083 1.20799 19.9758 1.10056C19.8685 0.993121 19.7406 0.90826 19.6 0.851432C19.4593 0.794604 19.3087 0.766764 19.157 0.769607Z" fill="#28285A"/>
<path d="M19.0405 27.9043C18.7605 27.9365 18.5028 28.0726 18.3179 28.2856C18.133 28.4985 18.0344 28.773 18.0415 29.0551V55.0057C18.0406 55.1552 18.0692 55.3035 18.1257 55.4419C18.1822 55.5803 18.2654 55.7061 18.3706 55.8122C18.4759 55.9182 18.6009 56.0023 18.7388 56.0598C18.8766 56.1172 19.0245 56.1468 19.1738 56.1468C19.3231 56.1468 19.4709 56.1172 19.6087 56.0598C19.7465 56.0023 19.8716 55.9182 19.9769 55.8122C20.0821 55.7061 20.1653 55.5803 20.2218 55.4419C20.2783 55.3035 20.3069 55.1552 20.306 55.0057V29.0551C20.3102 28.8926 20.2795 28.7313 20.2157 28.5819C20.152 28.4324 20.0568 28.2984 19.9367 28.1892C19.8165 28.0799 19.6742 27.998 19.5196 27.9489C19.3649 27.8997 19.2015 27.8845 19.0405 27.9043Z" fill="#28285A"/>
<path d="M32.1451 26.7534V29.0216H38.3563V26.7534H32.1451Z" fill="#28285A"/>
<path d="M29.8971 34.6586V36.9267H38.3563V34.6586H29.8971Z" fill="#28285A"/>
<path d="M40.6041 26.1864C37.5029 26.1864 34.9592 28.734 34.9592 31.8402C34.9592 34.9461 37.5029 37.4938 40.6041 37.4939C43.7053 37.4939 46.249 34.9461 46.249 31.8402C46.249 28.734 43.7053 26.1864 40.6041 26.1864ZM40.6041 28.4546C42.4863 28.4546 43.9845 29.955 43.9845 31.8402C43.9845 33.7251 42.4863 35.2257 40.6041 35.2257C38.7221 35.2257 37.224 33.7251 37.224 31.8402C37.224 29.955 38.722 28.4546 40.6041 28.4546Z" fill="#28285A"/>
<path d="M45.0002 28.4549C44.7161 28.4888 44.4554 28.6295 44.2711 28.8486C44.0867 29.0678 43.9924 29.3491 44.0072 29.6354C44.0221 29.9216 44.1449 30.1914 44.3509 30.3903C44.557 30.5891 44.8309 30.7021 45.117 30.7064H56.3901C57.0261 30.7064 57.5225 31.2032 57.5224 31.8405C57.5225 32.4775 57.0262 32.9746 56.3901 32.9746H45.117C44.9614 32.9614 44.8048 32.9805 44.657 33.0311C44.5093 33.0817 44.3736 33.1624 44.2586 33.2682C44.1436 33.3741 44.0518 33.5029 43.989 33.6461C43.9262 33.7893 43.8938 33.9439 43.8938 34.1003C43.8938 34.2567 43.9262 34.4113 43.989 34.5545C44.0518 34.6977 44.1436 34.8263 44.2586 34.9321C44.3736 35.0379 44.5093 35.1187 44.657 35.1692C44.8048 35.2198 44.9614 35.2392 45.117 35.226H56.3901C58.2455 35.226 59.787 33.6987 59.787 31.8405C59.787 29.9821 58.2454 28.4549 56.3901 28.4549H45.117C45.0781 28.4529 45.0391 28.4529 45.0002 28.4549Z" fill="#28285A"/>
<path d="M49.4628 32.9575L47.5312 34.125L50.9117 39.762C51.0115 39.9295 51.1529 40.0681 51.3221 40.1647C51.4913 40.2612 51.6827 40.3122 51.8775 40.3127H55.2743C55.572 40.3094 55.8565 40.1884 56.0655 39.976C56.2745 39.7635 56.3911 39.4768 56.3899 39.1786V33.5418H54.142V38.0612H52.5269L49.4628 32.9575Z" fill="#28285A"/>
<path d="M51.8774 24.502C49.3992 24.502 47.3814 26.5394 47.3813 29.0216H49.6294C49.6294 27.7604 50.6183 26.7534 51.8774 26.7534C53.1366 26.7534 54.1419 27.7604 54.1419 29.0216H56.3899C56.3899 26.5394 54.3556 24.502 51.8774 24.502Z" fill="#28285A"/>
<path d="M40.4197 11.0437C38.8133 11.9726 38.2549 14.0594 39.1824 15.6684L42.5627 21.5324C43.4902 23.1413 45.5821 23.715 47.1885 22.7861L48.1691 22.2193C49.7756 21.2904 50.3255 19.189 49.3981 17.58L46.0179 11.716C45.0904 10.1072 43.0067 9.54784 41.4002 10.4769L40.4197 11.0437ZM41.5436 12.9937L42.5242 12.4266C43.0818 12.1038 43.7344 12.291 44.0565 12.8503L47.4368 18.7141C47.7591 19.2726 47.5946 19.9323 47.0371 20.255L46.0564 20.822C45.4989 21.1448 44.8317 20.9654 44.5096 20.4069L41.1294 14.5431C40.8071 13.9847 40.9861 13.3164 41.5437 12.9939L41.5436 12.9937Z" fill="#28285A"/>
<path d="M46.0992 21.4498L44.1343 22.5839L47.5312 28.4545L49.4796 27.3204L46.0992 21.4498Z" fill="#28285A"/>
<path d="M49.5127 19.4819L47.5646 20.5993L50.9447 26.4699L52.8931 25.3525L49.5127 19.4819Z" fill="#28285A"/>
<path d="M66.5475 47.0836L62.0348 47.1006V49.3521H66.5309L66.5479 54.4388C66.5479 55.4719 65.8812 56.1232 64.8494 56.1232H62.0353V58.3914H64.8494C67.0202 58.3914 68.7959 56.613 68.7959 54.4388V49.3521C68.7959 48.1748 67.7426 47.0833 66.5479 47.0839L66.5475 47.0836Z" fill="#28285A"/>
<path d="M45.1167 43.698C44.9678 43.6974 44.8203 43.7264 44.6827 43.7832C44.5451 43.84 44.4199 43.9235 44.3147 44.029C44.2094 44.1344 44.126 44.2596 44.0693 44.3974C44.0126 44.5353 43.9838 44.683 43.9844 44.8321V58.3908C43.9844 61.5004 46.5245 64.0282 49.6293 64.0282V61.7767C47.7352 61.7767 46.2489 60.288 46.2489 58.3908V45.9662H60.9023V58.3908C60.9023 60.288 59.4161 61.7767 57.5222 61.7767V64.0282C60.6269 64.0282 63.1671 61.5004 63.1671 58.3908V44.8321C63.1676 44.683 63.1387 44.5353 63.082 44.3974C63.0253 44.2596 62.9419 44.1344 62.8366 44.029C62.7314 43.9235 62.6064 43.84 62.4687 43.7832C62.3311 43.7264 62.1835 43.6974 62.0346 43.698H45.1167Z" fill="#28285A"/>
<path d="M53.5592 48.7849C53.4103 48.7865 53.2633 48.8175 53.1265 48.8763C52.9897 48.9351 52.8659 49.0206 52.7621 49.1275C52.6584 49.2345 52.5769 49.361 52.5223 49.4997C52.4676 49.6384 52.4408 49.7865 52.4436 49.9356V57.8075C52.4436 58.1083 52.5629 58.3967 52.7753 58.6094C52.9876 58.822 53.2756 58.9416 53.5759 58.9416C53.8762 58.9416 54.1642 58.822 54.3766 58.6094C54.5889 58.3967 54.7083 58.1083 54.7083 57.8075V49.9356C54.7111 49.7837 54.6833 49.6327 54.6266 49.4918C54.5699 49.3509 54.4853 49.223 54.378 49.1156C54.2707 49.0081 54.143 48.9235 54.0023 48.8667C53.8616 48.8099 53.7109 48.782 53.5592 48.7849Z" fill="#28285A"/>
<path d="M49.6128 48.7849C49.4639 48.7865 49.3169 48.8175 49.1801 48.8763C49.0433 48.9351 48.9194 49.0206 48.8157 49.1275C48.712 49.2345 48.6305 49.361 48.5758 49.4997C48.5212 49.6384 48.4944 49.7865 48.4971 49.9356V57.8075C48.4971 58.1083 48.6165 58.3967 48.8289 58.6094C49.0412 58.822 49.3293 58.9416 49.6296 58.9416C49.9299 58.9416 50.2178 58.822 50.4302 58.6094C50.6425 58.3967 50.7619 58.1083 50.7619 57.8075V49.9356C50.7647 49.7837 50.7369 49.6327 50.6802 49.4918C50.6235 49.3509 50.5389 49.223 50.4316 49.1156C50.3243 49.0081 50.1966 48.9235 50.0559 48.8667C49.9152 48.8099 49.7645 48.782 49.6128 48.7849Z" fill="#28285A"/>
<path d="M57.5057 48.7849C57.3569 48.7865 57.2099 48.8175 57.0731 48.8763C56.9363 48.9351 56.8124 49.0206 56.7087 49.1275C56.605 49.2345 56.5235 49.361 56.4688 49.4997C56.4141 49.6384 56.3873 49.7865 56.3901 49.9356V57.8075C56.3901 57.9565 56.4194 58.1038 56.4763 58.2414C56.5332 58.379 56.6167 58.504 56.7218 58.6094C56.827 58.7147 56.9518 58.7984 57.0892 58.8554C57.2266 58.9124 57.3737 58.9416 57.5224 58.9416C57.6711 58.9416 57.8183 58.9124 57.9557 58.8554C58.0931 58.7984 58.218 58.7147 58.3231 58.6094C58.4283 58.504 58.5117 58.379 58.5686 58.2414C58.6255 58.1038 58.6548 57.9565 58.6548 57.8075V49.9356C58.6577 49.7837 58.6299 49.6327 58.5731 49.4918C58.5164 49.3509 58.4318 49.223 58.3245 49.1156C58.2173 49.0081 58.0895 48.9235 57.9488 48.8667C57.8081 48.8099 57.6574 48.782 57.5057 48.7849Z" fill="#28285A"/>
<path d="M65.3239 9.25606C65.0396 9.28975 64.7788 9.43032 64.5942 9.64955C64.4097 9.86878 64.3152 10.1501 64.33 10.4365C64.3449 10.7229 64.468 10.9928 64.6742 11.1917C64.8805 11.3906 65.1544 11.5036 65.4407 11.5076H66.5399C66.6954 11.5206 66.8519 11.5014 66.9996 11.4507C67.1473 11.4001 67.2828 11.3192 67.3977 11.2133C67.5126 11.1075 67.6044 10.9792 67.6671 10.836C67.7299 10.6929 67.7622 10.5381 67.7622 10.3818C67.7622 10.2255 67.7299 10.0708 67.6671 9.9276C67.6044 9.78444 67.5126 9.65582 67.3977 9.55C67.2828 9.44418 67.1473 9.3635 66.9996 9.31286C66.8519 9.26223 66.6954 9.24296 66.5399 9.25606H65.4407C65.4018 9.25404 65.3628 9.25404 65.3239 9.25606Z" fill="#28285A"/>
<path d="M59.679 9.25606C59.3947 9.28975 59.1339 9.43032 58.9493 9.64955C58.7648 9.86878 58.6703 10.1501 58.6851 10.4365C58.7 10.7229 58.8231 10.9928 59.0293 11.1917C59.2356 11.3906 59.5095 11.5036 59.7958 11.5076H60.895C61.0505 11.5206 61.207 11.5014 61.3547 11.4507C61.5024 11.4001 61.6379 11.3192 61.7528 11.2133C61.8677 11.1075 61.9595 10.9792 62.0222 10.836C62.0849 10.6929 62.1173 10.5381 62.1173 10.3818C62.1173 10.2255 62.0849 10.0708 62.0222 9.9276C61.9595 9.78444 61.8677 9.65582 61.7528 9.55C61.6379 9.44418 61.5024 9.3635 61.3547 9.31286C61.207 9.26223 61.0505 9.24296 60.895 9.25606H59.7958C59.7569 9.25404 59.7179 9.25404 59.679 9.25606Z" fill="#28285A"/>
<path d="M56.3966 4.16408C56.3967 4.31245 56.3675 4.45932 56.3108 4.5964C56.2541 4.73348 56.1711 4.85813 56.0663 4.96305C55.9616 5.06796 55.8373 5.15123 55.7004 5.208C55.5635 5.26478 55.4168 5.29375 55.2686 5.29374C55.1205 5.29373 54.9738 5.26452 54.837 5.20774C54.7001 5.15096 54.5759 5.06796 54.4712 4.96305C54.3664 4.85814 54.2833 4.73347 54.2266 4.5964C54.1699 4.45933 54.1409 4.31244 54.1409 4.16408C54.1409 3.86448 54.2597 3.57722 54.4712 3.36537C54.6827 3.15353 54.9695 3.03443 55.2686 3.03442C55.4167 3.03441 55.5634 3.06365 55.7003 3.12042C55.8371 3.17718 55.9615 3.26048 56.0662 3.36537C56.171 3.47027 56.2541 3.5947 56.3108 3.73176C56.3675 3.86882 56.3966 4.01573 56.3966 4.16408Z" fill="#28285A"/>
<path d="M65.4196 19.9798C65.4196 20.1281 65.3905 20.275 65.3339 20.4121C65.2772 20.5491 65.194 20.6738 65.0893 20.7787C64.9846 20.8836 64.8603 20.9666 64.7235 21.0234C64.5866 21.0802 64.44 21.1094 64.2918 21.1094C64.1437 21.1094 63.997 21.0802 63.8602 21.0234C63.7233 20.9666 63.599 20.8836 63.4942 20.7787C63.3895 20.6738 63.3065 20.5491 63.2498 20.4121C63.1931 20.275 63.1639 20.1281 63.1639 19.9798C63.1639 19.8314 63.1931 19.6845 63.2498 19.5474C63.3065 19.4104 63.3895 19.2859 63.4942 19.181C63.599 19.0761 63.7233 18.9929 63.8602 18.9361C63.997 18.8793 64.1437 18.8501 64.2918 18.8501C64.44 18.8501 64.5866 18.8793 64.7235 18.9361C64.8603 18.9929 64.9846 19.0761 65.0893 19.181C65.194 19.2859 65.2772 19.4104 65.3339 19.5474C65.3905 19.6845 65.4196 19.8314 65.4196 19.9798Z" fill="#28285A"/>
<path d="M64.2836 12.5413C64.2499 12.2565 64.1094 11.9952 63.8906 11.8103C63.6717 11.6255 63.3909 11.531 63.1049 11.5458C62.819 11.5607 62.5494 11.6838 62.3508 11.8903C62.1522 12.0969 62.0396 12.3716 62.0356 12.6583V13.759C62.0225 13.9148 62.0418 14.0716 62.0923 14.2195C62.1429 14.3674 62.2236 14.5031 62.3292 14.6182C62.4349 14.7333 62.5632 14.8253 62.7061 14.8882C62.849 14.951 63.0035 14.9833 63.1596 14.9833C63.3157 14.9833 63.47 14.951 63.6129 14.8882C63.7559 14.8253 63.8843 14.7333 63.9899 14.6182C64.0956 14.5031 64.1762 14.3674 64.2267 14.2195C64.2773 14.0716 64.2966 13.9148 64.2836 13.759V12.6583C64.2856 12.6193 64.2856 12.5803 64.2836 12.5413Z" fill="#28285A"/>
<path d="M64.2836 6.88748C64.2499 6.6027 64.1094 6.34138 63.8906 6.15653C63.6717 5.97167 63.3909 5.87715 63.1049 5.89203C62.819 5.90691 62.5494 6.02995 62.3508 6.23653C62.1522 6.44311 62.0396 6.71775 62.0356 7.00448V8.10522C62.0225 8.26101 62.0418 8.41776 62.0923 8.56568C62.1429 8.71359 62.2236 8.84955 62.3292 8.96464C62.4349 9.07973 62.5632 9.17151 62.7061 9.23435C62.849 9.2972 63.0035 9.32973 63.1596 9.32973C63.3157 9.32973 63.47 9.2972 63.6129 9.23435C63.7559 9.17151 63.8843 9.07973 63.9899 8.96464C64.0956 8.84955 64.1762 8.71359 64.2267 8.56568C64.2773 8.41776 64.2966 8.26101 64.2836 8.10522V7.00448C64.2856 6.96552 64.2856 6.92645 64.2836 6.88748Z" fill="#28285A"/>
<path d="M38.3505 50.4813C38.3505 50.6297 38.3213 50.7766 38.2647 50.9137C38.208 51.0507 38.1248 51.1754 38.0201 51.2803C37.9154 51.3852 37.7911 51.4682 37.6543 51.525C37.5174 51.5818 37.3707 51.611 37.2226 51.611C37.0745 51.611 36.9278 51.5818 36.791 51.525C36.6541 51.4682 36.5298 51.3852 36.425 51.2803C36.3203 51.1754 36.2371 51.0507 36.1805 50.9137C36.1238 50.7766 36.0946 50.6297 36.0946 50.4813C36.0946 50.333 36.1238 50.1861 36.1805 50.049C36.2371 49.912 36.3203 49.7875 36.425 49.6826C36.5298 49.5777 36.6541 49.4944 36.791 49.4377C36.9278 49.3809 37.0745 49.3517 37.2226 49.3517C37.3707 49.3517 37.5174 49.3809 37.6543 49.4377C37.7911 49.4945 37.9154 49.5777 38.0201 49.6826C38.1248 49.7875 38.208 49.912 38.2647 50.049C38.3213 50.1861 38.3505 50.333 38.3505 50.4813Z" fill="#28285A"/>
<path d="M67.675 29.0171C67.675 29.1655 67.6458 29.3124 67.5891 29.4494C67.5324 29.5865 67.4494 29.7112 67.3447 29.8161C67.2399 29.921 67.1156 30.004 66.9787 30.0608C66.8419 30.1176 66.6952 30.1468 66.5471 30.1468C66.399 30.1468 66.2523 30.1176 66.1154 30.0608C65.9786 30.004 65.8544 29.921 65.7496 29.8161C65.6449 29.7112 65.5617 29.5865 65.505 29.4494C65.4484 29.3124 65.4192 29.1655 65.4192 29.0171C65.4192 28.8688 65.4484 28.7219 65.505 28.5848C65.5617 28.4477 65.6449 28.3233 65.7496 28.2184C65.8544 28.1135 65.9786 28.0302 66.1154 27.9734C66.2523 27.9167 66.399 27.8875 66.5471 27.8875C66.6952 27.8875 66.8419 27.9167 66.9787 27.9734C67.1156 28.0302 67.2399 28.1135 67.3447 28.2184C67.4494 28.3233 67.5324 28.4477 67.5891 28.5848C67.6458 28.7219 67.675 28.8688 67.675 29.0171Z" fill="#28285A"/>
</svg>
