<svg width="70" height="70" viewBox="0 0 70 70" fill="none" xmlns="http://www.w3.org/2000/svg">
<path d="M66.1518 34.4753C66.1518 34.39 66.1223 34.3144 66.1031 34.2349C66.0965 34.2063 66.107 34.1759 66.0977 34.1479L64.561 29.4295C64.4218 28.9963 64.0144 28.6998 63.558 28.6998H60.4897V9.31061C60.4897 9.27808 60.4742 9.25046 60.4712 9.21874C60.4673 9.17472 60.4552 9.13726 60.4459 9.09419C60.4133 8.94393 60.3541 8.80913 60.2651 8.69005C60.251 8.67118 60.2525 8.64548 60.2371 8.6273L56.1117 3.77993C55.9106 3.54272 55.6167 3.40601 55.3073 3.40601H15.2189C14.9095 3.40601 14.6156 3.54272 14.4144 3.77733L10.2877 8.6247C10.2697 8.64616 10.2712 8.67597 10.2549 8.69839C10.1707 8.81364 10.1139 8.94257 10.0817 9.0864C10.071 9.13384 10.058 9.17513 10.0539 9.22352C10.0513 9.2536 10.0364 9.27958 10.0364 9.31048V28.6998H6.2217C5.74729 28.6998 5.33221 29.017 5.20452 29.4734L3.88696 34.1918C3.87698 34.2273 3.88969 34.2641 3.88354 34.3003C3.87329 34.3595 3.84827 34.4133 3.84827 34.4753C3.84827 34.521 3.86864 34.56 3.87424 34.6041C3.87807 34.6342 3.86508 34.6648 3.87151 34.6945L10.088 63.8248C10.088 65.3511 11.3295 66.5939 12.8558 66.5939H57.718C59.2444 66.5939 60.4872 65.3511 60.4666 64.0259L66.1313 34.6765C66.1361 34.651 66.1234 34.6263 66.1265 34.6008C66.1316 34.5578 66.1518 34.5199 66.1518 34.4753ZM12.1481 10.3677H58.3754V14.4313H12.1481V10.3677ZM15.7062 5.52036H54.8185L57.1481 8.25337H13.378L15.7062 5.52036ZM12.1481 16.5455H58.3754V28.6999H58.0466C57.5053 23.1266 52.8489 18.7397 47.1375 18.7397C45.008 18.7397 42.9841 19.3711 41.2098 20.5109C39.4911 19.4014 37.4563 18.7397 35.2628 18.7397C33.0683 18.7397 31.0329 19.4017 29.3136 20.5121C27.542 19.3704 25.5183 18.7397 23.3882 18.7397C17.6756 18.7397 13.02 23.1266 12.479 28.6999H12.1479V16.5455H12.1481ZM42.4605 28.6998C41.9429 25.1756 38.9285 22.4524 35.2631 22.4524C31.5966 22.4524 28.5821 25.1756 28.0643 28.6998H26.4658C26.996 24.2931 30.7158 20.8539 35.2631 20.8539C39.8104 20.8539 43.5303 24.2931 44.0604 28.6998H42.4605ZM40.3463 28.6998H30.1785C30.6688 26.3433 32.7622 24.5667 35.2631 24.5667C37.764 24.5667 39.8564 26.3434 40.3463 28.6998ZM18.304 28.6998C18.7942 26.3433 20.8877 24.5667 23.3885 24.5667C24.0796 24.5667 24.7374 24.7485 25.3657 25.0093C24.8176 26.1466 24.4812 27.3878 24.3539 28.6998H18.304ZM14.5911 28.6998C15.1213 24.2931 18.8411 20.8539 23.3884 20.8539C24.866 20.8539 26.2859 21.2153 27.5647 21.898C27.1726 22.2824 26.8331 22.7137 26.5015 23.1524C25.5328 22.6952 24.4742 22.4526 23.3884 22.4526C19.7219 22.4526 16.7073 25.1757 16.1896 28.6999H14.5911V28.6998ZM46.1723 28.6998C46.045 27.3874 45.708 26.1459 45.1598 25.0084C45.7877 24.7483 46.4456 24.5667 47.1377 24.5667C49.6385 24.5667 51.732 26.3433 52.2222 28.6998H46.1723ZM54.3365 28.6998C53.8187 25.1756 50.8043 22.4524 47.1377 22.4524C46.0509 22.4524 44.9923 22.6948 44.0242 23.1517C43.693 22.7134 43.3538 22.2824 42.9621 21.8984C44.2417 21.2154 45.6614 20.8538 47.1377 20.8538C51.6849 20.8538 55.4038 24.2929 55.9339 28.6997H54.3365V28.6998ZM62.7922 30.8141L63.6406 33.4182H6.29581L7.02356 30.8141H62.7922ZM58.3729 63.8249C58.3729 64.1858 58.079 64.4798 57.718 64.4798H12.8558C12.4935 64.4798 12.1996 64.1858 12.1765 63.6057L6.20844 35.5325H63.8161L58.3729 63.8249Z" fill="#28285A"/>
<path d="M43.216 39.3923C42.6746 39.1783 42.0609 39.4542 41.8507 39.9982L40.929 42.3831H28.8945L27.9727 39.9982C27.7638 39.4542 27.154 39.1783 26.6074 39.3923C26.0634 39.6012 25.7927 40.2122 26.0029 40.7562L27.1851 43.8192C27.3423 44.2267 27.733 44.4974 28.17 44.4974H41.6535C42.0905 44.4974 42.4811 44.2267 42.6384 43.8192L43.8206 40.7562C44.0307 40.2122 43.76 39.6012 43.216 39.3923Z" fill="#28285A"/>
<path d="M54.1315 11.4996H51.6344C51.0517 11.4996 50.5785 11.974 50.5785 12.5567C50.5785 13.1394 51.0517 13.6139 51.6344 13.6139H54.1315C54.7142 13.6139 55.1874 13.1394 55.1874 12.5567C55.1873 11.974 54.7142 11.4996 54.1315 11.4996Z" fill="#28285A"/>
<path d="M47.5076 11.4996C46.9249 11.4996 46.4517 11.974 46.4517 12.5567C46.4517 13.1394 46.9249 13.6139 47.5076 13.6139H47.6468C48.2295 13.6139 48.6331 13.1394 48.6331 12.5567C48.6331 11.974 48.0903 11.4996 47.5076 11.4996Z" fill="#28285A"/>
<path d="M44.3144 11.4996C43.7317 11.4996 43.2585 11.974 43.2585 12.5567C43.2585 13.1394 43.7317 13.6139 44.3144 13.6139H44.4691C45.0518 13.6139 45.4476 13.1394 45.4476 12.5567C45.4475 11.974 44.8971 11.4996 44.3144 11.4996Z" fill="#28285A"/>
</svg>
