<svg width="70" height="70" viewBox="0 0 70 70" fill="none" xmlns="http://www.w3.org/2000/svg">
<path d="M67.8125 1.09375H53.5938C53.3037 1.09375 53.0255 1.20898 52.8204 1.4141C52.6152 1.61922 52.5 1.89742 52.5 2.1875V5.46875H50.3125C50.083 5.46892 49.8594 5.54126 49.6734 5.67552C49.4873 5.80978 49.3481 5.99917 49.2756 6.21688L47.3364 12.0312H44.8438V10.9375C44.8438 10.6474 44.7285 10.3692 44.5234 10.1641C44.3183 9.95898 44.0401 9.84375 43.75 9.84375H15.3125C15.0224 9.84375 14.7442 9.95898 14.5391 10.1641C14.334 10.3692 14.2188 10.6474 14.2188 10.9375V32.8125C14.2188 33.6827 14.5645 34.5173 15.1798 35.1327C15.7952 35.748 16.6298 36.0938 17.5 36.0938H45.9375C46.8077 36.0938 47.6423 35.748 48.2577 35.1327C48.873 34.5173 49.2188 33.6827 49.2188 32.8125V13.3011L51.1011 7.65625H67.8125C68.1026 7.65625 68.3808 7.54102 68.5859 7.3359C68.791 7.13078 68.9062 6.85258 68.9062 6.5625V2.1875C68.9062 1.89742 68.791 1.61922 68.5859 1.4141C68.3808 1.20898 68.1026 1.09375 67.8125 1.09375ZM42.6562 33.9062H17.5C17.2099 33.9062 16.9317 33.791 16.7266 33.5859C16.5215 33.3808 16.4062 33.1026 16.4062 32.8125V12.0312H42.6562V33.9062ZM45.9375 33.9062H44.8438V14.2188H47.0312V32.8125C47.0312 33.1026 46.916 33.3808 46.7109 33.5859C46.5058 33.791 46.2276 33.9062 45.9375 33.9062ZM66.7188 5.46875H54.6875V3.28125H66.7188V5.46875Z" fill="#28285A"/>
<path d="M20.7812 31.7188H22.9688V29.5312H28.4375V31.7188H30.625V29.5312H36.0938V31.7188H38.2812V29.5312H40.4688V27.3438H38.2812V24.0625H40.4688V21.875H38.2812V18.5938H40.4688V16.4062H38.2812V14.2188H36.0938V16.4062H30.625V14.2188H28.4375V16.4062H22.9688V14.2188H20.7812V16.4062H18.5938V18.5938H20.7812V21.875H18.5938V24.0625H20.7812V27.3438H18.5938V29.5312H20.7812V31.7188ZM36.0938 27.3438H30.625V24.0625H36.0938V27.3438ZM36.0938 18.5938V21.875H30.625V18.5938H36.0938ZM22.9688 18.5938H28.4375V21.875H22.9688V18.5938ZM22.9688 24.0625H28.4375V27.3438H22.9688V24.0625Z" fill="#28285A"/>
<path d="M61.25 43.75H57.9688V41.5625C57.9688 41.2724 57.8535 40.9942 57.6484 40.7891C57.4433 40.584 57.1651 40.4688 56.875 40.4688H12.7717L8.67234 30.2192C8.59119 30.0161 8.45099 29.842 8.26986 29.7193C8.08873 29.5967 7.87499 29.5312 7.65625 29.5313H2.1875C1.89742 29.5313 1.61922 29.6465 1.4141 29.8516C1.20898 30.0567 1.09375 30.3349 1.09375 30.625V63.4375C1.09375 63.7276 1.20898 64.0058 1.4141 64.2109C1.61922 64.416 1.89742 64.5312 2.1875 64.5312H6.5625V67.8125C6.5625 68.1026 6.67773 68.3808 6.88285 68.5859C7.08797 68.791 7.36617 68.9062 7.65625 68.9062H13.125C13.4151 68.9062 13.6933 68.791 13.8984 68.5859C14.1035 68.3808 14.2188 68.1026 14.2188 67.8125V64.5312H45.9375V67.8125C45.9375 68.1026 46.0527 68.3808 46.2579 68.5859C46.463 68.791 46.7412 68.9062 47.0312 68.9062H52.5C52.7901 68.9062 53.0683 68.791 53.2734 68.5859C53.4785 68.3808 53.5938 68.1026 53.5938 67.8125V64.5312H56.875C57.1651 64.5312 57.4433 64.416 57.6484 64.2109C57.8535 64.0058 57.9688 63.7276 57.9688 63.4375V61.25H61.25C61.5401 61.25 61.8183 61.1348 62.0234 60.9296C62.2285 60.7245 62.3438 60.4463 62.3438 60.1562V55.7812C62.3438 55.4912 62.2285 55.213 62.0234 55.0079C61.8183 54.8027 61.5401 54.6875 61.25 54.6875H57.9688V52.5H61.25C61.5401 52.5 61.8183 52.3848 62.0234 52.1796C62.2285 51.9745 62.3438 51.6963 62.3438 51.4062V44.8438C62.3438 44.5537 62.2285 44.2755 62.0234 44.0704C61.8183 43.8652 61.5401 43.75 61.25 43.75ZM6.91578 31.7188L10.4158 40.4688H3.28125V31.7188H6.91578ZM12.0312 66.7188H8.75V64.5312H12.0312V66.7188ZM51.4062 66.7188H48.125V64.5312H51.4062V66.7188ZM55.7812 62.3438H3.28125V60.1562H9.84375V57.9688H3.28125V55.7812H9.84375V53.5938H3.28125V51.4062H9.84375V49.2188H3.28125V47.0312H5.46875V44.8438H3.28125V42.6562H55.7812V62.3438ZM60.1562 56.875V59.0625H57.9688V56.875H60.1562ZM60.1562 50.3125H57.9688V45.9375H60.1562V50.3125Z" fill="#28285A"/>
<path d="M53.5938 44.8438H7.65625V47.0312H53.5938V44.8438Z" fill="#28285A"/>
<path d="M36.0938 50.3125H25.1562C24.8662 50.3125 24.588 50.4277 24.3829 50.6329C24.1777 50.838 24.0625 51.1162 24.0625 51.4062V55.7812C24.0625 56.0713 24.1777 56.3495 24.3829 56.5546C24.588 56.7598 24.8662 56.875 25.1562 56.875H36.0938C36.3838 56.875 36.662 56.7598 36.8671 56.5546C37.0723 56.3495 37.1875 56.0713 37.1875 55.7812V51.4062C37.1875 51.1162 37.0723 50.838 36.8671 50.6329C36.662 50.4277 36.3838 50.3125 36.0938 50.3125ZM35 54.6875H26.25V52.5H35V54.6875Z" fill="#28285A"/>
</svg>
