<svg width="70" height="70" viewBox="0 0 70 70" fill="none" xmlns="http://www.w3.org/2000/svg">
<path d="M5.46875 61.25H9.84375V64.5312C9.84375 65.1353 10.3329 65.625 10.9375 65.625H19.6875C20.2921 65.625 20.7812 65.1353 20.7812 64.5312V61.25H49.2188V64.5312C49.2188 65.1353 49.7079 65.625 50.3125 65.625H59.0625C59.6671 65.625 60.1562 65.1353 60.1562 64.5312V61.25H64.5312C66.3406 61.25 67.8125 59.7781 67.8125 57.9688V12.0312C67.8125 10.2219 66.3406 8.75 64.5312 8.75H59.7386L57.8534 4.97955C57.6675 4.60892 57.2894 4.375 56.875 4.375H41.5625C41.1481 4.375 40.77 4.60892 40.5841 4.97955L38.6989 8.75H31.3011L29.4159 4.97955C29.23 4.60892 28.8519 4.375 28.4375 4.375H13.125C12.7106 4.375 12.3325 4.60892 12.1466 4.97955L10.2614 8.75H5.46875C3.65936 8.75 2.1875 10.2219 2.1875 12.0312V57.9688C2.1875 59.7781 3.65936 61.25 5.46875 61.25ZM18.5938 63.4375H12.0312V61.25H18.5938V63.4375ZM57.9688 63.4375H51.4062V61.25H57.9688V63.4375ZM64.5312 59.0625H59.0625H50.3125H19.6875H10.9375H5.46875C4.86526 59.0625 4.375 58.5717 4.375 57.9688V24.0625H65.625V57.9688C65.625 58.5717 65.1347 59.0625 64.5312 59.0625ZM42.2386 6.5625H56.1989L57.2926 8.75H41.1449L42.2386 6.5625ZM13.8011 6.5625H27.7614L28.8551 8.75H12.7074L13.8011 6.5625ZM5.46875 10.9375H10.9375H30.625H39.375H59.0625H64.5312C65.1347 10.9375 65.625 11.4283 65.625 12.0312V21.875H4.375V12.0312C4.375 11.4283 4.86526 10.9375 5.46875 10.9375Z" fill="#28285A"/>
<path d="M35 20.7812C36.1685 20.7812 37.2676 20.3257 38.0933 19.4995C38.92 18.6733 39.375 17.5748 39.375 16.4062C39.375 15.2377 38.92 14.1392 38.0933 13.313C37.2676 12.4868 36.1685 12.0312 35 12.0312C33.8315 12.0312 32.7324 12.4868 31.9067 13.313C31.08 14.1392 30.625 15.2377 30.625 16.4062C30.625 17.5748 31.08 18.6733 31.9067 19.4995C32.7324 20.3257 33.8315 20.7812 35 20.7812ZM36.5466 17.9529C35.9987 18.5008 35.1835 18.6773 34.4539 18.499L37.1063 15.8466C37.1542 16.0279 37.1875 16.2137 37.1875 16.4062C37.1875 16.9905 36.96 17.5395 36.5466 17.9529ZM33.4534 14.8596C33.8667 14.4463 34.4157 14.2188 35 14.2188C35.1925 14.2188 35.3784 14.2521 35.5596 14.3L32.8937 16.9659C32.8458 16.7846 32.8125 16.5988 32.8125 16.4062C32.8125 15.822 33.04 15.273 33.4534 14.8596Z" fill="#28285A"/>
<path d="M20.7812 20.7812C23.1941 20.7812 25.1562 18.8186 25.1562 16.4062C25.1562 13.9939 23.1941 12.0312 20.7812 12.0312C18.3684 12.0312 16.4062 13.9939 16.4062 16.4062C16.4062 18.8186 18.3684 20.7812 20.7812 20.7812ZM20.7812 18.5938C19.9754 18.5938 19.2776 18.1507 18.898 17.5H22.6645C22.2849 18.1507 21.5871 18.5938 20.7812 18.5938ZM20.7812 14.2188C21.5871 14.2188 22.2849 14.6618 22.6645 15.3125H18.898C19.2776 14.6618 19.9754 14.2188 20.7812 14.2188Z" fill="#28285A"/>
<path d="M49.2188 20.7812C50.3873 20.7812 51.4864 20.3257 52.312 19.4995C53.1387 18.6733 53.5938 17.5748 53.5938 16.4062C53.5938 15.2377 53.1387 14.1392 52.312 13.313C51.4864 12.4868 50.3873 12.0312 49.2188 12.0312C48.0502 12.0312 46.9511 12.4868 46.1255 13.313C45.2988 14.1392 44.8438 15.2377 44.8438 16.4062C44.8438 17.5748 45.2988 18.6733 46.1255 19.4995C46.9511 20.3257 48.0502 20.7812 49.2188 20.7812ZM47.6721 17.9529C47.2588 17.5395 47.0312 16.9905 47.0312 16.4062C47.0312 16.2137 47.0646 16.0279 47.1125 15.8466L49.7648 18.499C49.0352 18.6773 48.2201 18.5008 47.6721 17.9529ZM50.7654 14.8596C51.1787 15.273 51.4062 15.822 51.4062 16.4062C51.4062 16.5988 51.3729 16.7846 51.325 16.9659L48.6591 14.3C48.8404 14.2521 49.0262 14.2188 49.2188 14.2188C49.803 14.2188 50.352 14.4463 50.7654 14.8596Z" fill="#28285A"/>
<path d="M61.25 27.3438H42.6562H27.3438H8.75C8.14545 27.3438 7.65625 27.8335 7.65625 28.4375V54.6875C7.65625 55.2915 8.14545 55.7812 8.75 55.7812H61.25C61.8546 55.7812 62.3438 55.2915 62.3438 54.6875V28.4375C62.3438 27.8335 61.8546 27.3438 61.25 27.3438ZM41.5625 29.5312V31.7188H28.4375V29.5312H41.5625ZM26.25 29.5312V32.8125C26.25 33.4165 26.7392 33.9062 27.3438 33.9062H42.6562C43.2608 33.9062 43.75 33.4165 43.75 32.8125V29.5312H60.1562V42.6562H9.84375V29.5312H26.25ZM9.84375 53.5938V44.8438H60.1562V53.5938H9.84375Z" fill="#28285A"/>
</svg>
