<svg width="70" height="70" viewBox="0 0 70 70" fill="none" xmlns="http://www.w3.org/2000/svg">
<path d="M22.3744 20.761H47.6256C47.852 20.761 48.0691 20.6711 48.2292 20.511C48.3893 20.3509 48.4793 20.1338 48.4793 19.9074V5.77932C48.4793 5.55291 48.3893 5.33578 48.2292 5.17569C48.0691 5.0156 47.852 4.92566 47.6256 4.92566H22.3744C22.148 4.92566 21.9308 5.0156 21.7708 5.17569C21.6107 5.33578 21.5207 5.55291 21.5207 5.77932V19.9074C21.5207 20.1338 21.6107 20.3509 21.7708 20.511C21.9308 20.6711 22.148 20.761 22.3744 20.761ZM23.228 6.63298H46.7719V19.0537H23.228V6.63298Z" fill="#28285A"/>
<path d="M48.4793 60.0463V25.1402C48.4793 24.9138 48.3893 24.6966 48.2292 24.5365C48.0691 24.3764 47.852 24.2865 47.6256 24.2865H22.3744C22.148 24.2865 21.9308 24.3764 21.7708 24.5365C21.6107 24.6966 21.5207 24.9138 21.5207 25.1402V60.0463C21.5207 60.2727 21.6107 60.4898 21.7708 60.6499C21.9308 60.81 22.148 60.8999 22.3744 60.8999H47.6256C47.852 60.8999 48.0691 60.81 48.2292 60.6499C48.3893 60.4898 48.4793 60.2727 48.4793 60.0463ZM46.7719 59.1926H23.228V25.9938H46.7719V59.1926Z" fill="#28285A"/>
<path d="M26.028 40.9756H26.1732L30.7317 40.1219L33.1646 41.4195L30.7744 42.6914L26.1646 41.8377C25.9382 41.797 25.7049 41.8478 25.516 41.9791C25.3271 42.1104 25.1981 42.3113 25.1573 42.5377C25.1166 42.7642 25.1674 42.9975 25.2987 43.1864C25.43 43.3753 25.6309 43.5043 25.8573 43.5451L28.35 44.006L27.0695 44.689C26.8692 44.7943 26.7189 44.9749 26.6517 45.191C26.5844 45.4071 26.6058 45.641 26.711 45.8414C26.7842 45.979 26.8938 46.0939 27.0277 46.1737C27.1616 46.2534 27.3149 46.295 27.4707 46.2938C27.6108 46.2931 27.7486 46.258 27.872 46.1914L29.1012 45.5341L28.1024 47.7451C28.0554 47.8476 28.0291 47.9584 28.0251 48.0711C28.0211 48.1838 28.0394 48.2962 28.0791 48.4017C28.1188 48.5073 28.179 48.604 28.2563 48.6861C28.3336 48.7683 28.4263 48.8343 28.5293 48.8804C28.6398 48.9276 28.7591 48.9508 28.8793 48.9487C29.0425 48.9491 29.2025 48.9027 29.3402 48.8149C29.4779 48.7272 29.5875 48.6018 29.6561 48.4536L31.5854 44.2365L34.1463 42.8451V45.739L31.2354 49.4097C31.095 49.5874 31.031 49.8136 31.0574 50.0386C31.0838 50.2635 31.1985 50.4687 31.3762 50.6091C31.5539 50.7495 31.7802 50.8135 32.0051 50.7871C32.23 50.7606 32.4352 50.646 32.5756 50.4682L34.1463 48.4878V49.939C34.1463 50.1654 34.2363 50.3825 34.3964 50.5426C34.5565 50.7027 34.7736 50.7926 35 50.7926C35.2264 50.7926 35.4435 50.7027 35.6036 50.5426C35.7637 50.3825 35.8537 50.1654 35.8537 49.939V48.539L37.3305 50.4597C37.4109 50.5642 37.5144 50.6486 37.6329 50.7063C37.7514 50.7641 37.8816 50.7936 38.0134 50.7926C38.202 50.792 38.3851 50.729 38.5341 50.6134C38.7126 50.475 38.829 50.2715 38.8578 50.0475C38.8866 49.8235 38.8255 49.5973 38.6878 49.4182L35.8537 45.7475V42.8963L38.4146 44.2365L40.3268 48.4621C40.3954 48.6103 40.505 48.7357 40.6427 48.8235C40.7804 48.9112 40.9404 48.9577 41.1037 48.9573C41.2238 48.9594 41.3431 48.9361 41.4537 48.889C41.5566 48.8429 41.6494 48.7768 41.7266 48.6947C41.8039 48.6125 41.8641 48.5158 41.9038 48.4103C41.9435 48.3047 41.9619 48.1923 41.9579 48.0796C41.9539 47.9669 41.9276 47.8561 41.8805 47.7536L40.8817 45.5426L42.111 46.1999C42.2343 46.2665 42.3721 46.3017 42.5122 46.3024C42.6681 46.3035 42.8213 46.262 42.9552 46.1822C43.0892 46.1024 43.1987 45.9875 43.2719 45.8499C43.3772 45.6496 43.3985 45.4156 43.3313 45.1995C43.264 44.9834 43.1137 44.8028 42.9134 44.6975L41.6329 44.0146L44.1256 43.5365C44.352 43.4958 44.553 43.3668 44.6842 43.1778C44.8155 42.9889 44.8664 42.7556 44.8256 42.5292C44.7849 42.3028 44.6558 42.1019 44.4669 41.9706C44.278 41.8393 44.0447 41.7885 43.8183 41.8292L39.2085 42.6829L36.8183 41.4109L39.2683 40.1219L43.8439 40.8987H43.989C44.2154 40.9168 44.4398 40.8443 44.6127 40.697C44.7856 40.5497 44.8929 40.3398 44.911 40.1134C44.9291 39.887 44.8565 39.6626 44.7092 39.4897C44.562 39.3168 44.352 39.2095 44.1256 39.1914L41.7354 38.7902L42.9732 38.1329C43.1108 38.0596 43.2257 37.9501 43.3054 37.8161C43.3852 37.6822 43.4268 37.529 43.4256 37.3731C43.4128 37.2308 43.3645 37.094 43.2852 36.9752C43.2058 36.8564 43.0979 36.7594 42.9713 36.6932C42.8447 36.6269 42.7035 36.5935 42.5607 36.5959C42.4178 36.5984 42.2779 36.6367 42.1537 36.7073L40.8732 37.3902L41.889 35.0768C41.9796 34.8685 41.9837 34.6327 41.9004 34.4214C41.8172 34.2101 41.6534 34.0405 41.4451 33.9499C41.2368 33.8594 41.0011 33.8553 40.7898 33.9385C40.5784 34.0218 40.4089 34.1856 40.3183 34.3938L38.4488 38.6621L35.8878 40.028V37.0573L38.722 33.3865C38.8601 33.2065 38.921 32.9791 38.8914 32.7541C38.8618 32.5292 38.744 32.3252 38.564 32.1871C38.384 32.049 38.1566 31.9881 37.9316 32.0177C37.7067 32.0473 37.5027 32.1651 37.3646 32.3451L35.8878 34.2658V32.8658C35.8878 32.6394 35.7979 32.4223 35.6378 32.2622C35.4777 32.1021 35.2606 32.0121 35.0341 32.0121C34.8077 32.0121 34.5906 32.1021 34.4305 32.2622C34.2704 32.4223 34.1805 32.6394 34.1805 32.8658V34.317L32.6098 32.3365C32.4694 32.1588 32.2642 32.0441 32.0392 32.0177C31.8143 31.9913 31.5881 32.0553 31.4104 32.1957C31.2326 32.336 31.118 32.5413 31.0915 32.7662C31.0651 32.9911 31.1291 33.2173 31.2695 33.3951L34.1805 37.0658V40.0536L31.5854 38.6451L29.7159 34.3768C29.6253 34.1685 29.4557 34.0047 29.2444 33.9214C29.033 33.8382 28.7973 33.8423 28.589 33.9329C28.3807 34.0234 28.2169 34.193 28.1337 34.4043C28.0504 34.6157 28.0546 34.8514 28.1451 35.0597L29.161 37.3731L27.8805 36.6902C27.6801 36.5838 27.4457 36.5613 27.2288 36.6278C27.0118 36.6942 26.8302 36.8441 26.7238 37.0445C26.6174 37.2448 26.5949 37.4793 26.6613 37.6962C26.7278 37.9131 26.8777 38.0948 27.078 38.2012L28.3158 38.8585L25.9256 39.2597C25.6992 39.2778 25.4893 39.3851 25.342 39.558C25.1947 39.7309 25.1221 39.9552 25.1402 40.1817C25.1584 40.4081 25.2657 40.618 25.4386 40.7653C25.6115 40.9126 25.8358 40.9851 26.0622 40.967L26.028 40.9756Z" fill="#28285A"/>
<path d="M45.5768 70H49.6659C49.8923 70 50.1094 69.9101 50.2695 69.75C50.4296 69.5899 50.5195 69.3727 50.5195 69.1463V65.7317H52.0732C52.2996 65.7317 52.5167 65.6418 52.6768 65.4817C52.8369 65.3216 52.9268 65.1045 52.9268 64.8781V3.51707C52.9246 2.58498 52.5533 1.69171 51.8942 1.03262C51.2351 0.373526 50.3419 0.00225416 49.4098 0H20.5903C19.6582 0.00225416 18.7649 0.373526 18.1058 1.03262C17.4467 1.69171 17.0754 2.58498 17.0732 3.51707V64.8781C17.0732 65.1045 17.1631 65.3216 17.3232 65.4817C17.4833 65.6418 17.7004 65.7317 17.9268 65.7317H19.4805V69.1463C19.4805 69.3727 19.5704 69.5899 19.7305 69.75C19.8906 69.9101 20.1078 70 20.3342 70H24.4232C24.6496 70 24.8667 69.9101 25.0268 69.75C25.1869 69.5899 25.2768 69.3727 25.2768 69.1463V65.7317H44.7232V69.1463C44.7232 69.3727 44.8131 69.5899 44.9732 69.75C45.1333 69.9101 45.3504 70 45.5768 70ZM48.8122 68.2927H46.4305V65.7317H48.8122V68.2927ZM23.5695 68.2927H21.1878V65.7317H23.5695V68.2927ZM24.4232 64.0244H18.7805V3.51707C18.7805 3.0371 18.9712 2.57678 19.3106 2.23738C19.65 1.89799 20.1103 1.70732 20.5903 1.70732H49.4098C49.8897 1.70732 50.3501 1.89799 50.6895 2.23738C51.0289 2.57678 51.2195 3.0371 51.2195 3.51707V64.0244H24.4232Z" fill="#28285A"/>
</svg>
