<svg width="70" height="70" viewBox="0 0 70 70" fill="none" xmlns="http://www.w3.org/2000/svg">
<path d="M2.1875 60.1562C2.18978 62.1861 2.99715 64.1322 4.43248 65.5675C5.86781 67.0028 7.81389 67.8102 9.84375 67.8125H33.9062C35.9361 67.8102 37.8822 67.0028 39.3175 65.5675C40.7528 64.1322 41.5602 62.1861 41.5625 60.1562C41.5625 59.8662 41.4473 59.588 41.2421 59.3829C41.037 59.1777 40.7588 59.0625 40.4688 59.0625H39.2573C39.9872 58.3511 40.5673 57.5006 40.9632 56.5614C41.3592 55.6221 41.5629 54.613 41.5625 53.5938C41.5625 53.3037 41.4473 53.0255 41.2421 52.8204C41.037 52.6152 40.7588 52.5 40.4688 52.5H39.2573C39.9872 51.7886 40.5673 50.9381 40.9632 49.9989C41.3592 49.0596 41.5629 48.0505 41.5625 47.0312C41.5625 46.7412 41.4473 46.463 41.2421 46.2579C41.037 46.0527 40.7588 45.9375 40.4688 45.9375H39.2573C39.9872 45.2261 40.5673 44.3756 40.9632 43.4364C41.3592 42.4971 41.5629 41.488 41.5625 40.4688C41.5625 40.1787 41.4473 39.9005 41.2421 39.6954C41.037 39.4902 40.7588 39.375 40.4688 39.375H33.2023C33.5748 38.6871 33.747 37.9086 33.6995 37.1278L32.8408 22.9435C33.5117 22.434 34.0557 21.7763 34.4303 21.0217C34.8049 20.2672 34.9999 19.4362 35 18.5938V8.75H32.8125V18.5938C32.8125 19.464 32.4668 20.2986 31.8514 20.9139C31.2361 21.5293 30.4015 21.875 29.5312 21.875C28.661 21.875 27.8264 21.5293 27.2111 20.9139C26.5957 20.2986 26.25 19.464 26.25 18.5938V8.75H24.0625V18.5938C24.0626 19.4364 24.2576 20.2677 24.6323 21.0225C25.0071 21.7773 25.5514 22.4351 26.2227 22.9445L25.3627 37.1257C25.3151 37.9072 25.4874 38.6865 25.8602 39.375H18.9804C19.3543 38.6893 19.5279 37.9124 19.4815 37.1328L18.658 20.8086C20.6322 19.4429 21.875 16.9363 21.875 14.2188C21.875 9.99701 18.9312 6.5625 15.3125 6.5625C11.6938 6.5625 8.75 9.99701 8.75 14.2188C8.75 16.9363 9.99277 19.4429 11.967 20.8086L11.1444 37.1191C11.0964 37.9031 11.2698 38.6848 11.6447 39.375H3.28125C2.99117 39.375 2.71297 39.4902 2.50785 39.6954C2.30273 39.9005 2.1875 40.1787 2.1875 40.4688C2.18708 41.488 2.39085 42.4971 2.78677 43.4364C3.18269 44.3756 3.76275 45.2261 4.49272 45.9375H3.28125C2.99117 45.9375 2.71297 46.0527 2.50785 46.2579C2.30273 46.463 2.1875 46.7412 2.1875 47.0312C2.18708 48.0505 2.39085 49.0596 2.78677 49.9989C3.18269 50.9381 3.76275 51.7886 4.49272 52.5H3.28125C2.99117 52.5 2.71297 52.6152 2.50785 52.8204C2.30273 53.0255 2.1875 53.3037 2.1875 53.5938C2.18708 54.613 2.39085 55.6221 2.78677 56.5614C3.18269 57.5006 3.76275 58.3511 4.49272 59.0625H3.28125C2.99117 59.0625 2.71297 59.1777 2.50785 59.3829C2.30273 59.588 2.1875 59.8662 2.1875 60.1562ZM10.9375 14.2188C10.9375 11.2033 12.9001 8.75 15.3125 8.75C17.7249 8.75 19.6875 11.2033 19.6875 14.2188C19.6875 16.4095 18.6396 18.3848 17.0178 19.251C16.8347 19.3487 16.6833 19.4965 16.5811 19.6771C16.4788 19.8577 16.4301 20.0636 16.4406 20.2709L17.2975 37.2559C17.3143 37.5274 17.2752 37.7996 17.1826 38.0554C17.09 38.3113 16.9459 38.5454 16.7592 38.7433C16.5725 38.9413 16.3471 39.0988 16.0971 39.2061C15.8471 39.3135 15.5777 39.3684 15.3056 39.3674C15.0335 39.3665 14.7645 39.3098 14.5152 39.2007C14.266 39.0916 14.0417 38.9326 13.8564 38.7333C13.671 38.5341 13.5285 38.299 13.4377 38.0425C13.3469 37.786 13.3096 37.5136 13.3283 37.2422L14.1844 20.2705C14.1949 20.0632 14.1462 19.8573 14.044 19.6767C13.9417 19.4961 13.7903 19.3483 13.6072 19.2505C11.9854 18.3848 10.9375 16.4095 10.9375 14.2188ZM28.082 38.7479C27.895 38.5503 27.7508 38.3161 27.6587 38.06C27.5666 37.804 27.5285 37.5316 27.5468 37.2601L28.3551 23.9337C29.1305 24.1057 29.9342 24.1057 30.7096 23.9337L31.5163 37.2626C31.5415 37.6709 31.4403 38.077 31.2263 38.4257C31.0124 38.7744 30.6961 39.0486 30.3206 39.211C29.9452 39.3734 29.5288 39.416 29.1282 39.3332C28.7276 39.2503 28.3623 39.0459 28.082 38.7479ZM4.48438 41.5625H39.2656C39.0118 42.7969 38.3401 43.9061 37.3639 44.703C36.3876 45.4999 35.1665 45.9359 33.9062 45.9375H9.84375C8.58352 45.9359 7.36236 45.4999 6.38611 44.703C5.40985 43.9061 4.73821 42.7969 4.48438 41.5625ZM4.48438 48.125H39.2656C39.0118 49.3594 38.3401 50.4686 37.3639 51.2655C36.3876 52.0624 35.1665 52.4984 33.9062 52.5H9.84375C8.58352 52.4984 7.36236 52.0624 6.38611 51.2655C5.40985 50.4686 4.73821 49.3594 4.48438 48.125ZM4.48438 54.6875H39.2656C39.0118 55.9219 38.3401 57.0311 37.3639 57.828C36.3876 58.6249 35.1665 59.0609 33.9062 59.0625H9.84375C8.58352 59.0609 7.36236 58.6249 6.38611 57.828C5.40985 57.0311 4.73821 55.9219 4.48438 54.6875ZM9.84375 61.25H39.2656C39.0118 62.4844 38.3401 63.5936 37.3639 64.3905C36.3876 65.1874 35.1665 65.6234 33.9062 65.625H9.84375C8.58352 65.6234 7.36236 65.1874 6.38611 64.3905C5.40985 63.5936 4.73821 62.4844 4.48438 61.25H9.84375Z" fill="#28285A"/>
<path d="M49.2187 28.4375C49.1005 28.4375 48.9819 28.4404 48.8633 28.4426L48.9662 28.1852L53.9998 26.1718C54.2028 26.0907 54.3768 25.9505 54.4993 25.7695C54.6219 25.5885 54.6874 25.3749 54.6874 25.1563C54.6874 24.9377 54.6219 24.7241 54.4993 24.5431C54.3768 24.3621 54.2028 24.2219 53.9998 24.1408L48.9662 22.1274L46.9529 17.0939C46.8717 16.8909 46.7316 16.7169 46.5506 16.5943C46.3696 16.4718 46.156 16.4062 45.9374 16.4062C45.7187 16.4062 45.5052 16.4718 45.3241 16.5943C45.1431 16.7169 45.003 16.8909 44.9218 17.0939L42.9085 22.1274L37.8749 24.1408C37.6719 24.2219 37.4979 24.3621 37.3754 24.5431C37.2528 24.7241 37.1873 24.9377 37.1873 25.1563C37.1873 25.3749 37.2528 25.5885 37.3754 25.7695C37.4979 25.9505 37.6719 26.0907 37.8749 26.1718L42.9085 28.1852L43.3837 29.3734C40.2943 30.3923 37.5274 32.2064 35.3612 34.6334L36.9909 36.0924C38.9329 33.9168 41.4213 32.3 44.1983 31.4097L44.9218 33.2187C45.003 33.4217 45.1431 33.5957 45.3241 33.7183C45.5052 33.8408 45.7187 33.9063 45.9374 33.9063C46.156 33.9063 46.3696 33.8408 46.5506 33.7183C46.7316 33.5957 46.8717 33.4217 46.9529 33.2187L47.971 30.6734C48.3857 30.6423 48.8031 30.625 49.2186 30.625C51.5897 30.6272 53.9322 31.1434 56.0846 32.1379C58.2371 33.1324 60.1484 34.5816 61.6869 36.3858C63.2255 38.1899 64.3546 40.3061 64.9967 42.5887C65.6388 44.8712 65.7785 47.2657 65.4062 49.6074C65.0338 51.9491 64.1584 54.1823 62.8401 56.1531C61.5217 58.1239 59.7919 59.7856 57.7697 61.0236C55.7475 62.2616 53.4809 63.0466 51.1262 63.3245C48.7714 63.6024 46.3844 63.3665 44.1295 62.6332L43.4515 64.7131C45.3139 65.3192 47.2603 65.627 49.2187 65.625C59.4713 65.625 67.8125 57.2838 67.8125 47.0313C67.8125 36.7788 59.4713 28.4375 49.2187 28.4375ZM45.9375 29.8675L44.7655 26.9376C44.7105 26.8001 44.6281 26.6752 44.5234 26.5704C44.4186 26.4657 44.2937 26.3833 44.1562 26.3283L41.2263 25.1563L44.1562 23.9843C44.2937 23.9293 44.4186 23.8469 44.5234 23.7422C44.6281 23.6374 44.7105 23.5125 44.7655 23.375L45.9375 20.4451L47.1094 23.375C47.1645 23.5125 47.2469 23.6374 47.3516 23.7422C47.4564 23.8469 47.5813 23.9293 47.7188 23.9843L50.6487 25.1563L47.7188 26.3283C47.5813 26.3833 47.4564 26.4657 47.3516 26.5704C47.2469 26.6752 47.1645 26.8001 47.1094 26.9376L45.9375 29.8675Z" fill="#28285A"/>
<path d="M49.2188 56.875C47.4952 56.8759 45.8017 56.424 44.3077 55.5646L43.2148 57.4594C45.0908 58.5391 47.2234 59.0927 49.3877 59.0619C51.5521 59.0311 53.668 58.4169 55.5125 57.2842C57.357 56.1514 58.8617 54.542 59.8681 52.6257C60.8745 50.7093 61.3453 48.5569 61.2307 46.3954C61.1162 44.2338 60.4207 42.1432 59.2175 40.3439C58.0142 38.5446 56.3478 37.1032 54.394 36.1717C52.4401 35.2402 50.2711 34.853 48.1157 35.0511C45.9602 35.2491 43.898 36.025 42.1466 37.2969L43.4338 39.0656C44.6907 38.1531 46.1457 37.5509 47.6799 37.3083C49.2141 37.0657 50.7839 37.1896 52.261 37.6699C53.7382 38.1502 55.0807 38.9732 56.1788 40.0717C57.277 41.1701 58.0996 42.5129 58.5794 43.9902C59.0593 45.4674 59.1828 47.0373 58.9398 48.5714C58.6967 50.1055 58.0941 51.5603 57.1812 52.817C56.2683 54.0736 55.0709 55.0964 53.6871 55.8017C52.3032 56.507 50.772 56.8748 49.2188 56.875Z" fill="#28285A"/>
<path d="M30.625 8.75H28.4375V17.5H30.625V8.75Z" fill="#28285A"/>
<path d="M67.0646 13.1811L61.0209 11.1666L59.0064 5.12285C58.9339 4.90502 58.7946 4.71555 58.6084 4.58128C58.4221 4.44701 58.1983 4.37476 57.9687 4.37476C57.7391 4.37476 57.5154 4.44701 57.3291 4.58128C57.1429 4.71555 57.0036 4.90502 56.9311 5.12285L54.9166 11.1666L48.8728 13.1811C48.655 13.2536 48.4655 13.3929 48.3313 13.5791C48.197 13.7654 48.1248 13.9892 48.1248 14.2187C48.1248 14.4483 48.197 14.6721 48.3313 14.8584C48.4655 15.0446 48.655 15.1839 48.8728 15.2564L54.9166 17.2709L56.9311 23.3146C57.0036 23.5325 57.1429 23.722 57.3291 23.8562C57.5154 23.9905 57.7391 24.0627 57.9687 24.0627C58.1983 24.0627 58.4221 23.9905 58.6084 23.8562C58.7946 23.722 58.9339 23.5325 59.0064 23.3146L61.0209 17.2709L67.0646 15.2564C67.2825 15.1839 67.472 15.0446 67.6062 14.8584C67.7405 14.6721 67.8127 14.4483 67.8127 14.2187C67.8127 13.9892 67.7405 13.7654 67.6062 13.5791C67.472 13.3929 67.2825 13.2536 67.0646 13.1811ZM59.8103 15.3686C59.6493 15.4222 59.5029 15.5127 59.3828 15.6328C59.2627 15.7529 59.1722 15.8993 59.1186 16.0604L57.9687 19.5098L56.8189 16.0601C56.7652 15.899 56.6748 15.7526 56.5547 15.6325C56.4346 15.5124 56.2882 15.422 56.1271 15.3683L52.6777 14.2187L56.1274 13.0689C56.2885 13.0153 56.4349 12.9248 56.555 12.8047C56.6751 12.6846 56.7655 12.5382 56.8192 12.3771L57.9687 8.92773L59.1186 12.3774C59.1722 12.5385 59.2627 12.6849 59.3828 12.805C59.5029 12.9251 59.6493 13.0155 59.8103 13.0692L63.2598 14.2187L59.8103 15.3686Z" fill="#28285A"/>
</svg>
