<svg width="70" height="70" viewBox="0 0 70 70" fill="none" xmlns="http://www.w3.org/2000/svg">
<path d="M62.3438 4.375H7.65625C6.20638 4.37674 4.81639 4.95346 3.79118 5.97868C2.76596 7.00389 2.18924 8.39388 2.1875 9.84375V60.1562C2.18924 61.6061 2.76596 62.9961 3.79118 64.0213C4.81639 65.0465 6.20638 65.6233 7.65625 65.625H62.3438C63.7936 65.6233 65.1836 65.0465 66.2088 64.0213C67.234 62.9961 67.8108 61.6061 67.8125 60.1562V9.84375C67.8108 8.39388 67.234 7.00389 66.2088 5.97868C65.1836 4.95346 63.7936 4.37674 62.3438 4.375ZM65.625 60.1562C65.625 61.0265 65.2793 61.8611 64.6639 62.4764C64.0486 63.0918 63.214 63.4375 62.3438 63.4375H7.65625C6.78601 63.4375 5.95141 63.0918 5.33606 62.4764C4.7207 61.8611 4.375 61.0265 4.375 60.1562V9.84375C4.375 8.97351 4.7207 8.13891 5.33606 7.52356C5.95141 6.9082 6.78601 6.5625 7.65625 6.5625H62.3438C63.214 6.5625 64.0486 6.9082 64.6639 7.52356C65.2793 8.13891 65.625 8.97351 65.625 9.84375V60.1562Z" fill="#28285A"/>
<path d="M47.0312 9.84375H31.7188C31.4287 9.84375 31.1505 9.95898 30.9454 10.1641C30.7402 10.3692 30.625 10.6474 30.625 10.9375V30.625C30.625 30.9151 30.7402 31.1933 30.9454 31.3984C31.1505 31.6035 31.4287 31.7188 31.7188 31.7188H47.0312C47.3213 31.7188 47.5995 31.6035 47.8046 31.3984C48.0098 31.1933 48.125 30.9151 48.125 30.625V10.9375C48.125 10.6474 48.0098 10.3692 47.8046 10.1641C47.5995 9.95898 47.3213 9.84375 47.0312 9.84375ZM45.9375 29.5312H32.8125V12.0312H45.9375V29.5312Z" fill="#28285A"/>
<path d="M47.0312 33.9062H7.65625C7.36617 33.9062 7.08797 34.0215 6.88285 34.2266C6.67773 34.4317 6.5625 34.7099 6.5625 35V59.0625C6.5625 59.3526 6.67773 59.6308 6.88285 59.8359C7.08797 60.041 7.36617 60.1562 7.65625 60.1562H47.0312C47.3213 60.1562 47.5995 60.041 47.8046 59.8359C48.0098 59.6308 48.125 59.3526 48.125 59.0625V35C48.125 34.7099 48.0098 34.4317 47.8046 34.2266C47.5995 34.0215 47.3213 33.9062 47.0312 33.9062ZM45.9375 57.9688H8.75V36.0938H45.9375V57.9688Z" fill="#28285A"/>
<path d="M56.875 13.125C53.2558 13.125 50.3125 17.0505 50.3125 21.875C50.2564 23.2812 50.5116 24.6825 51.0599 25.9786C51.6082 27.2747 52.4361 28.4337 53.4844 29.3727L52.5854 54.5705C52.5696 55.0111 52.6429 55.4504 52.8007 55.8621C52.9586 56.2738 53.1978 56.6495 53.504 56.9667C53.8103 57.2839 54.1774 57.5361 54.5833 57.7083C54.9892 57.8804 55.4257 57.969 55.8666 57.9688H57.8944C58.3353 57.969 58.7718 57.8804 59.1777 57.7083C59.5837 57.5361 59.9507 57.2839 60.257 56.9667C60.5633 56.6495 60.8025 56.2738 60.9603 55.8621C61.1181 55.4504 61.1914 55.0111 61.1757 54.5705L60.2657 29.3727C61.3139 28.4337 62.1418 27.2747 62.6902 25.9786C63.2385 24.6825 63.4937 23.2812 63.4375 21.875C63.4375 17.0505 60.4943 13.125 56.875 13.125ZM58.5627 27.9081C58.403 28.0107 58.2727 28.1531 58.1847 28.3213C58.0966 28.4894 58.0539 28.6776 58.0607 28.8673L58.9816 54.6481C58.9869 54.795 58.9625 54.9415 58.9099 55.0788C58.8573 55.2161 58.7776 55.3413 58.6755 55.4471C58.5734 55.5529 58.451 55.637 58.3157 55.6944C58.1804 55.7518 58.0349 55.7813 57.8879 55.7812H55.8611C55.7141 55.7813 55.5686 55.7518 55.4333 55.6944C55.2979 55.637 55.1756 55.5529 55.0735 55.4471C54.9714 55.3413 54.8917 55.2161 54.8391 55.0788C54.7865 54.9415 54.7621 54.795 54.7674 54.6481L55.6883 28.8673C55.6951 28.6776 55.6523 28.4894 55.5643 28.3213C55.4763 28.1531 55.346 28.0107 55.1863 27.9081C53.5544 26.857 52.5 24.4891 52.5 21.875C52.5 18.3181 54.5038 15.3125 56.875 15.3125C59.2463 15.3125 61.25 18.3181 61.25 21.875C61.25 24.4891 60.1957 26.857 58.5627 27.9081Z" fill="#28285A"/>
<path d="M37.1875 27.3438C37.4375 27.3413 37.679 27.2523 37.8709 27.092C38.0628 26.9317 38.1933 26.71 38.2402 26.4644C38.2872 26.2188 38.2477 25.9645 38.1285 25.7447C38.0092 25.5249 37.8176 25.3532 37.5861 25.2586C37.3546 25.1641 37.0976 25.1525 36.8586 25.226C36.6196 25.2995 36.4133 25.4534 36.2749 25.6616C36.1365 25.8699 36.0744 26.1196 36.0992 26.3684C36.124 26.6172 36.2341 26.8498 36.4109 27.0266C36.6206 27.2263 36.8979 27.3396 37.1875 27.3438Z" fill="#28285A"/>
<path d="M39.375 20.7813C40.024 20.7813 40.6584 20.5888 41.198 20.2283C41.7376 19.8677 42.1581 19.3553 42.4065 18.7557C42.6548 18.1561 42.7198 17.4964 42.5932 16.8599C42.4666 16.2234 42.1541 15.6387 41.6952 15.1798C41.2363 14.7209 40.6516 14.4084 40.0151 14.2818C39.3786 14.1552 38.7189 14.2202 38.1193 14.4685C37.5198 14.7169 37.0073 15.1374 36.6467 15.677C36.2862 16.2166 36.0938 16.851 36.0938 17.5C36.0938 18.3702 36.4395 19.2048 37.0548 19.8202C37.6702 20.4355 38.5048 20.7813 39.375 20.7813ZM39.375 16.4063C39.5913 16.4063 39.8028 16.4704 39.9827 16.5906C40.1625 16.7108 40.3027 16.8816 40.3855 17.0814C40.4683 17.2813 40.4899 17.5012 40.4477 17.7134C40.4055 17.9255 40.3014 18.1204 40.1484 18.2734C39.9954 18.4264 39.8005 18.5305 39.5884 18.5727C39.3762 18.6149 39.1563 18.5933 38.9564 18.5105C38.7566 18.4277 38.5858 18.2875 38.4656 18.1077C38.3454 17.9278 38.2812 17.7163 38.2812 17.5C38.2812 17.2099 38.3965 16.9317 38.6016 16.7266C38.8067 16.5215 39.0849 16.4063 39.375 16.4063Z" fill="#28285A"/>
<path d="M40.786 23.286C40.6317 23.4389 40.5265 23.6344 40.4838 23.8474C40.441 24.0604 40.4627 24.2813 40.546 24.4819C40.6293 24.6826 40.7705 24.8539 40.9515 24.974C41.1326 25.0941 41.3453 25.1575 41.5625 25.1563C41.8525 25.1541 42.1305 25.0405 42.3391 24.8391L42.4703 24.675C42.5118 24.6141 42.5449 24.5479 42.5688 24.4781C42.6004 24.4162 42.6225 24.3498 42.6344 24.2813C42.6471 24.209 42.6544 24.1359 42.6563 24.0625C42.6575 23.8453 42.5941 23.6326 42.474 23.4515C42.3539 23.2705 42.1826 23.1293 41.9819 23.046C41.7813 22.9627 41.5604 22.941 41.3474 22.9838C41.1344 23.0265 40.9389 23.1317 40.786 23.286Z" fill="#28285A"/>
<path d="M13.884 42.35C14.233 42.0295 14.4167 42.2143 14.5403 42.3357C14.7466 42.535 15.0229 42.6452 15.3096 42.6427C15.5964 42.6402 15.8707 42.5252 16.0735 42.3224C16.2763 42.1196 16.3914 41.8453 16.3938 41.5585C16.3963 41.2717 16.2861 40.9955 16.0869 40.7892C15.8471 40.5346 15.5577 40.3317 15.2367 40.1931C14.9156 40.0544 14.5696 39.9829 14.2198 39.9829C13.8701 39.9829 13.5241 40.0544 13.203 40.1931C12.8819 40.3317 12.5926 40.5346 12.3528 40.7892C12.1515 40.991 12.038 41.264 12.0368 41.5491C12.0355 41.8341 12.1467 42.1081 12.3462 42.3117C12.5472 42.5169 12.8202 42.6357 13.1074 42.6429C13.3945 42.65 13.6731 42.545 13.884 42.35Z" fill="#28285A"/>
<path d="M31.384 47.8187C31.733 47.4982 31.9167 47.6842 32.0403 47.8045C32.2466 48.0037 32.5229 48.114 32.8096 48.1115C33.0964 48.109 33.3707 47.9939 33.5735 47.7911C33.7763 47.5884 33.8914 47.314 33.8938 47.0273C33.8963 46.7405 33.7861 46.4642 33.5869 46.2579C33.347 46.0035 33.0576 45.8007 32.7366 45.6622C32.4155 45.5236 32.0695 45.4521 31.7198 45.4521C31.3701 45.4521 31.0241 45.5236 30.7031 45.6622C30.382 45.8007 30.0927 46.0035 29.8528 46.2579C29.6515 46.4597 29.538 46.7328 29.5368 47.0178C29.5355 47.3028 29.6467 47.5768 29.8462 47.7804C30.0473 47.9854 30.3203 48.1041 30.6074 48.1112C30.8945 48.1183 31.173 48.0134 31.384 47.8187Z" fill="#28285A"/>
<path d="M19.3528 51.1001C19.7006 50.7796 19.8855 50.9644 20.009 51.0858C20.2153 51.2851 20.4916 51.3953 20.7784 51.3928C21.0652 51.3903 21.3395 51.2753 21.5423 51.0725C21.7451 50.8697 21.8601 50.5954 21.8626 50.3086C21.8651 50.0218 21.7548 49.7456 21.5556 49.5393C21.3157 49.285 21.0263 49.0824 20.7052 48.9439C20.3842 48.8054 20.0382 48.734 19.6886 48.734C19.3389 48.734 18.993 48.8054 18.6719 48.9439C18.3509 49.0824 18.0615 49.285 17.8215 49.5393C17.6203 49.7411 17.5067 50.0141 17.5055 50.2992C17.5043 50.5842 17.6155 50.8582 17.815 51.0618C18.0161 51.2668 18.2891 51.3854 18.5761 51.3926C18.8632 51.3997 19.1418 51.2948 19.3528 51.1001Z" fill="#28285A"/>
<path d="M25.9153 41.2562C26.2642 40.9357 26.448 41.1206 26.5715 41.242C26.7778 41.4412 27.0541 41.5515 27.3409 41.549C27.6277 41.5465 27.902 41.4314 28.1048 41.2286C28.3076 41.0259 28.4226 40.7515 28.4251 40.4648C28.4276 40.178 28.3173 39.9017 28.1181 39.6954C27.8782 39.441 27.5889 39.2382 27.2678 39.0997C26.9468 38.9611 26.6008 38.8896 26.2511 38.8896C25.9014 38.8896 25.5554 38.9611 25.2343 39.0997C24.9133 39.2382 24.6239 39.441 24.384 39.6954C24.1828 39.8972 24.0692 40.1703 24.068 40.4553C24.0668 40.7403 24.178 41.0143 24.3775 41.2179C24.5786 41.4229 24.8516 41.5416 25.1386 41.5487C25.4257 41.5558 25.7043 41.4509 25.9153 41.2562Z" fill="#28285A"/>
<path d="M25.4767 52.8205C25.2754 53.0223 25.1619 53.2954 25.1607 53.5804C25.1594 53.8654 25.2706 54.1394 25.4701 54.343C25.6711 54.5486 25.9444 54.6676 26.2318 54.6748C26.5192 54.6819 26.7981 54.5766 27.009 54.3813C27.3579 54.0608 27.5417 54.2457 27.6653 54.3671C27.8716 54.5663 28.1479 54.6765 28.4346 54.6741C28.7214 54.6716 28.9957 54.5565 29.1985 54.3537C29.4013 54.151 29.5164 53.8766 29.5188 53.5898C29.5213 53.3031 29.4111 53.0268 29.2119 52.8205C28.972 52.5659 28.6825 52.363 28.3614 52.2244C28.0402 52.0857 27.6941 52.0142 27.3443 52.0142C26.9945 52.0142 26.6483 52.0857 26.3272 52.2244C26.006 52.363 25.7166 52.5659 25.4767 52.8205Z" fill="#28285A"/>
<path d="M39.0403 42.8357C39.3892 42.5163 39.573 42.7 39.6965 42.8214C39.9028 43.0207 40.1791 43.1309 40.4659 43.1284C40.7527 43.1259 41.027 43.0109 41.2298 42.8081C41.4326 42.6053 41.5476 42.331 41.5501 42.0442C41.5526 41.7574 41.4423 41.4812 41.2431 41.2749C41.0032 41.0204 40.7139 40.8177 40.3928 40.6792C40.0718 40.5406 39.7258 40.4691 39.3761 40.4691C39.0264 40.4691 38.6804 40.5406 38.3593 40.6792C38.0383 40.8177 37.7489 41.0204 37.509 41.2749C37.3078 41.4767 37.1942 41.7498 37.193 42.0348C37.1918 42.3198 37.303 42.5938 37.5025 42.7974C37.7034 43.0026 37.9765 43.1215 38.2636 43.1286C38.5508 43.1357 38.8294 43.0307 39.0403 42.8357Z" fill="#28285A"/>
<path d="M36.8528 52.6794C37.2017 52.36 37.3855 52.5438 37.509 52.6652C37.7153 52.8644 37.9916 52.9747 38.2784 52.9722C38.5652 52.9697 38.8395 52.8546 39.0423 52.6518C39.2451 52.4491 39.3601 52.1747 39.3626 51.888C39.3651 51.6012 39.2548 51.3249 39.0556 51.1186C38.8157 50.8643 38.5263 50.6617 38.2052 50.5233C37.8842 50.3848 37.5382 50.3134 37.1886 50.3134C36.8389 50.3134 36.493 50.3848 36.1719 50.5233C35.8509 50.6617 35.5615 50.8643 35.3215 51.1186C35.1203 51.3204 35.0067 51.5935 35.0055 51.8785C35.0043 52.1635 35.1155 52.4376 35.315 52.6411C35.5158 52.8466 35.7889 52.9656 36.0761 52.9728C36.3633 52.9799 36.642 52.8747 36.8528 52.6794Z" fill="#28285A"/>
<path d="M17.5 31.7188C19.6632 31.7188 21.7779 31.0773 23.5765 29.8755C25.3752 28.6736 26.7771 26.9654 27.6049 24.9669C28.4328 22.9683 28.6494 20.7691 28.2273 18.6475C27.8053 16.5258 26.7636 14.5769 25.234 13.0473C23.7043 11.5176 21.7555 10.4759 19.6338 10.0539C17.5121 9.63189 15.313 9.84849 13.3144 10.6763C11.3158 11.5042 9.60763 12.906 8.4058 14.7047C7.20397 16.5034 6.5625 18.618 6.5625 20.7813C6.56568 23.6811 7.71905 26.4612 9.76954 28.5117C11.82 30.5622 14.6002 31.7156 17.5 31.7188ZM17.5 12.0313C19.2306 12.0313 20.9223 12.5444 22.3612 13.5059C23.8002 14.4674 24.9217 15.8339 25.5839 17.4328C26.2462 19.0316 26.4195 20.791 26.0819 22.4883C25.7443 24.1856 24.9109 25.7447 23.6872 26.9684C22.4635 28.1922 20.9044 29.0255 19.207 29.3631C17.5097 29.7007 15.7504 29.5275 14.1515 28.8652C12.5527 28.2029 11.1861 27.0814 10.2246 25.6425C9.26318 24.2036 8.75 22.5118 8.75 20.7813C8.75261 18.4614 9.67531 16.2373 11.3157 14.5969C12.9561 12.9566 15.1802 12.0339 17.5 12.0313Z" fill="#28285A"/>
<path d="M17.5 27.3437C17.7901 27.3437 18.0683 27.2285 18.2734 27.0234C18.4785 26.8183 18.5938 26.5401 18.5938 26.25C18.5938 25.9599 18.4785 25.6817 18.2734 25.4766C18.0683 25.2715 17.7901 25.1562 17.5 25.1562C16.9193 25.1792 16.3402 25.0817 15.799 24.87C15.2578 24.6582 14.7663 24.3368 14.3554 23.9259C13.9445 23.5149 13.6231 23.0234 13.4113 22.4822C13.1996 21.9411 13.1021 21.3619 13.125 20.7812C13.125 20.4912 13.0098 20.213 12.8047 20.0079C12.5996 19.8027 12.3214 19.6875 12.0313 19.6875C11.7412 19.6875 11.463 19.8027 11.2579 20.0079C11.0528 20.213 10.9375 20.4912 10.9375 20.7812C10.9045 21.6519 11.0517 22.52 11.3698 23.3311C11.6879 24.1423 12.1701 24.879 12.7862 25.4951C13.4023 26.1111 14.139 26.5934 14.9501 26.9115C15.7613 27.2296 16.6294 27.3768 17.5 27.3437Z" fill="#28285A"/>
</svg>
