<svg width="70" height="70" viewBox="0 0 70 70" fill="none" xmlns="http://www.w3.org/2000/svg">
<path d="M5.74219 18.0469H9.57031C10.5162 18.0556 11.4204 18.4375 12.0861 19.1096C12.7518 19.7816 13.1252 20.6894 13.125 21.6353V57.4146C12.0637 57.6866 11.1384 58.3371 10.5233 59.2438C9.90828 60.1505 9.64588 61.2507 9.78555 62.3374C9.92522 63.424 10.4573 64.4222 11.2817 65.1438C12.106 65.8655 13.1657 66.2609 14.2613 66.2556C15.3569 66.2504 16.4128 65.8448 17.2301 65.1152C18.0475 64.3856 18.57 63.3824 18.6992 62.2945C18.8284 61.2065 18.5554 60.1089 17.9316 59.2082C17.3079 58.3074 16.3764 57.6658 15.3125 57.4041V47.5762C16.0118 48.2763 16.8434 48.8303 17.7587 49.2062C18.6741 49.582 19.655 49.7722 20.6445 49.7656H59.7461V57.4139C58.6848 57.6859 57.7595 58.3365 57.1444 59.2431C56.5294 60.1498 56.267 61.25 56.4066 62.3367C56.5463 63.4234 57.0784 64.4215 57.9028 65.1431C58.7271 65.8648 59.7868 66.2602 60.8824 66.255C61.978 66.2497 63.0339 65.8441 63.8512 65.1145C64.6686 64.385 65.1911 63.3818 65.3203 62.2938C65.4495 61.2058 65.1765 60.1082 64.5527 59.2075C63.929 58.3068 62.9975 57.6651 61.9336 57.4034V27.9244C61.9348 27.6308 61.8211 27.3484 61.6166 27.1376C61.4122 26.9269 61.1334 26.8046 60.8398 26.7969H47.3047V24.3344C48.3188 24.1133 49.25 23.6104 49.9911 22.8837C50.9835 21.8928 51.5418 20.5483 51.543 19.1458V14.7018C51.543 14.0978 51.0072 13.6719 50.4031 13.6719H42.0049C41.4009 13.6719 40.8789 14.0978 40.8789 14.7018V19.1458C40.8757 20.3675 41.2964 21.5524 42.0693 22.4985C42.8422 23.4446 43.9194 24.0932 45.1172 24.3338V26.7969H36.2305V21.8765C36.2373 20.7671 35.9795 19.6721 35.4785 18.6823L32.7219 13.2917C32.5944 13.0286 32.5317 12.7387 32.5391 12.4465V5.57703C32.5361 5.0842 32.3415 4.61187 31.9964 4.25995C31.6514 3.90804 31.183 3.70414 30.6904 3.69141H27.3238C26.8263 3.70236 26.3522 3.90428 25.9995 4.25533C25.6469 4.60638 25.4429 5.07963 25.4297 5.57703V12.4853C25.4406 12.7614 25.3888 13.0363 25.2782 13.2895L22.668 18.7608C22.2234 19.7113 21.999 20.75 22.0117 21.7993V26.7969H15.3125V21.6353C15.3121 20.1094 14.7081 18.6456 13.6322 17.5635C12.5564 16.4813 11.0962 15.8687 9.57031 15.8594H5.74219C5.45211 15.8594 5.17391 15.9746 4.96879 16.1797C4.76367 16.3848 4.64844 16.663 4.64844 16.9531C4.64844 17.2432 4.76367 17.5214 4.96879 17.7265C5.17391 17.9316 5.45211 18.0469 5.74219 18.0469ZM16.543 61.7623C16.543 62.2175 16.408 62.6625 16.1551 63.041C15.9023 63.4195 15.5428 63.7145 15.1223 63.8887C14.7017 64.0629 14.2389 64.1085 13.7925 64.0197C13.346 63.9309 12.9359 63.7117 12.614 63.3899C12.2921 63.068 12.0729 62.6579 11.9841 62.2114C11.8953 61.7649 11.9409 61.3022 12.1151 60.8816C12.2894 60.4611 12.5844 60.1016 12.9629 59.8487C13.3414 59.5958 13.7864 59.4609 14.2416 59.4609C14.8517 59.4616 15.4367 59.7043 15.8681 60.1357C16.2996 60.5672 16.5423 61.1521 16.543 61.7623V61.7623ZM43.0664 19.1458V15.8594H49.3555V19.1543C49.3523 19.9764 49.0228 20.7637 48.4395 21.343C48.0004 21.7799 47.4423 22.0777 46.8349 22.1992C46.2275 22.3207 45.5977 22.2604 45.0244 22.0259C44.4511 21.7915 43.9596 21.3932 43.6113 20.881C43.2631 20.3687 43.0735 19.7652 43.0664 19.1458V19.1458ZM20.6445 47.5781C19.9463 47.5811 19.2544 47.4464 18.6083 47.1816C17.9622 46.9168 17.3747 46.5272 16.8795 46.0351C16.3842 45.5429 15.9908 44.9579 15.722 44.3135C15.4531 43.6692 15.3139 42.9781 15.3125 42.2799V41.5625H59.7461V47.5781H20.6445ZM63.1641 61.7623C63.1641 62.2175 63.0291 62.6625 62.7762 63.041C62.5234 63.4195 62.1639 63.7145 61.7434 63.8887C61.3228 64.0629 60.86 64.1085 60.4136 64.0197C59.9671 63.9309 59.557 63.7117 59.2351 63.3899C58.9132 63.068 58.694 62.6579 58.6052 62.2114C58.5164 61.7649 58.562 61.3022 58.7362 60.8816C58.9105 60.4611 59.2055 60.1016 59.584 59.8487C59.9625 59.5958 60.4075 59.4609 60.8627 59.4609C61.4728 59.4616 62.0578 59.7043 62.4892 60.1357C62.9207 60.5672 63.1634 61.1521 63.1641 61.7623V61.7623ZM30.3516 5.87891V12.0313H27.6172V5.87891H30.3516ZM24.6535 19.6973L27.2754 14.2188H30.7602C30.7671 14.2188 30.7729 14.2636 30.7799 14.2771L33.5355 19.6766C33.8767 20.3593 34.0506 21.1134 34.043 21.8766V22.1484H24.1992V21.7993C24.1918 21.0735 24.3471 20.3553 24.6535 19.6973V19.6973ZM24.1992 24.3359H34.043V26.7969H24.1992V24.3359ZM59.7461 28.9844V39.375H15.3125V28.9844H59.7461Z" fill="#28285A"/>
</svg>
