<svg width="70" height="70" viewBox="0 0 70 70" fill="none" xmlns="http://www.w3.org/2000/svg">
<path d="M62.5758 20.4167H37.1213C33.7591 20.4167 31.0228 23.153 31.0228 26.5151V29.9621H28.3713V16.7045H36.0607C41.1728 16.7045 45.341 12.547 45.341 7.42423V3.18181C45.341 2.74696 44.9804 2.38635 44.5455 2.38635H2.12126C1.68641 2.38635 1.32581 2.74696 1.32581 3.18181V7.42423C1.32581 12.547 5.49399 16.7045 10.6061 16.7045H18.2955V29.9621H15.644V25.4545C15.644 25.0197 15.2834 24.6591 14.8485 24.6591H6.36368C5.92884 24.6591 5.56823 25.0197 5.56823 25.4545V46.6667C5.56823 47.1015 5.92884 47.4621 6.36368 47.4621H14.8485C15.2834 47.4621 15.644 47.1015 15.644 46.6667V42.1591H31.0228V47.7273C31.0228 50.2091 28.997 52.2348 26.5152 52.2348H15.9091C12.547 52.2348 9.81065 54.9712 9.81065 58.3333C9.81065 61.6954 12.547 64.4318 15.9091 64.4318H21.4773V66.8182C21.4773 67.253 21.8379 67.6136 22.2728 67.6136H28.6364C29.0713 67.6136 29.4319 67.253 29.4319 66.8182V64.4318H57.5379V66.8182C57.5379 67.253 57.8985 67.6136 58.3334 67.6136H64.697C65.1319 67.6136 65.4925 67.253 65.4925 66.8182V64.4318H67.8788C68.3137 64.4318 68.6743 64.0712 68.6743 63.6363V26.5151C68.6743 23.153 65.9379 20.4167 62.5758 20.4167ZM2.91671 3.97726H43.75V6.62878H2.91671V3.97726ZM2.95914 8.21969H43.7076C43.3046 12.0909 40.0273 15.1136 36.0607 15.1136H10.6061C6.63944 15.1136 3.36217 12.0909 2.95914 8.21969ZM19.8864 16.7045H26.7803V29.9621H19.8864V16.7045ZM14.0531 45.8712H7.15914V43.2197H8.4849C8.91974 43.2197 9.28035 42.8591 9.28035 42.4242C9.28035 41.9894 8.91974 41.6288 8.4849 41.6288H7.15914V38.9773H8.4849C8.91974 38.9773 9.28035 38.6167 9.28035 38.1818C9.28035 37.747 8.91974 37.3864 8.4849 37.3864H7.15914V34.7348H8.4849C8.91974 34.7348 9.28035 34.3742 9.28035 33.9394C9.28035 33.5045 8.91974 33.1439 8.4849 33.1439H7.15914V30.4924H8.4849C8.91974 30.4924 9.28035 30.1318 9.28035 29.697C9.28035 29.2621 8.91974 28.9015 8.4849 28.9015H7.15914V26.25H14.0531V45.8712ZM15.644 40.5682V31.553H31.0228V40.5682H15.644ZM27.841 66.0227H23.0682V64.4318H27.841V66.0227ZM63.9016 66.0227H59.1288V64.4318H63.9016V66.0227ZM67.0834 62.8409H15.9091C13.4273 62.8409 11.4016 60.8151 11.4016 58.3333C11.4016 55.8515 13.4273 53.8257 15.9091 53.8257H26.5152C29.8773 53.8257 32.6137 51.0894 32.6137 47.7273V26.5151C32.6137 24.0333 34.6394 22.0076 37.1213 22.0076H62.5758C65.0576 22.0076 67.0834 24.0333 67.0834 26.5151V62.8409Z" fill="#28285A"/>
<path d="M58.3333 24.6591C54.9712 24.6591 52.2349 27.3954 52.2349 30.7575C52.2349 32.4439 52.9243 33.9606 54.0273 35.0636C55.1303 36.1666 56.6576 36.8454 58.3333 36.8454C61.6955 36.8454 64.4318 34.1091 64.4318 30.7469C64.4318 27.3848 61.6955 24.6591 58.3333 24.6591ZM58.3333 26.25C59.2879 26.25 60.1788 26.5575 60.9106 27.0666L54.6424 33.3348C54.1333 32.603 53.8258 31.7227 53.8258 30.7575C53.8258 28.2757 55.8515 26.25 58.3333 26.25ZM58.3333 35.2651C57.3788 35.2651 56.4985 34.9575 55.7667 34.4591L62.0349 28.1909C62.544 28.9227 62.8409 29.803 62.8409 30.7575C62.8409 33.2394 60.8152 35.2651 58.3333 35.2651Z" fill="#28285A"/>
<path d="M58.3333 39.5076C54.9712 39.5076 52.2349 42.2439 52.2349 45.6061C52.2349 47.2818 52.9136 48.8091 54.0273 49.9121C54.0273 49.9121 54.0273 49.9121 54.0379 49.9121C55.1409 51.0151 56.6576 51.6939 58.344 51.6939C61.7061 51.6939 64.4424 48.9576 64.4424 45.5954C64.4318 42.2439 61.6955 39.5076 58.3333 39.5076ZM58.3333 41.0985C59.2879 41.0985 60.1788 41.4061 60.9106 41.9151L54.6424 48.1833C54.1333 47.4515 53.8258 46.5712 53.8258 45.6167C53.8258 43.1242 55.8515 41.0985 58.3333 41.0985ZM58.3333 50.1136C57.3788 50.1136 56.4985 49.8061 55.7667 49.3076L62.0349 43.0394C62.544 43.7712 62.8409 44.6515 62.8409 45.6061C62.8409 48.0879 60.8152 50.1136 58.3333 50.1136Z" fill="#28285A"/>
</svg>
