<svg width="70" height="70" viewBox="0 0 70 70" fill="none" xmlns="http://www.w3.org/2000/svg">
<path d="M62.3438 2.1875H7.65625C4.64078 2.1875 2.1875 4.64078 2.1875 7.65625V16.4062V55.7812C2.1875 58.7967 4.64078 61.25 7.65625 61.25H8.75V64.5312C8.75 66.3403 10.2222 67.8125 12.0312 67.8125H16.4062C18.2153 67.8125 19.6875 66.3403 19.6875 64.5312V61.25H50.3125V64.5312C50.3125 66.3403 51.7847 67.8125 53.5938 67.8125H57.9688C59.7778 67.8125 61.25 66.3403 61.25 64.5312V61.25H62.3438C65.3592 61.25 67.8125 58.7967 67.8125 55.7812V16.4062V7.65625C67.8125 4.64078 65.3592 2.1875 62.3438 2.1875ZM4.375 7.65625C4.375 5.84719 5.84719 4.375 7.65625 4.375H62.3438C64.1528 4.375 65.625 5.84719 65.625 7.65625V15.3125H4.375V7.65625ZM17.5 64.5312C17.5 65.1339 17.0089 65.625 16.4062 65.625H12.0312C11.4286 65.625 10.9375 65.1339 10.9375 64.5312V61.25H17.5V64.5312ZM59.0625 64.5312C59.0625 65.1339 58.5714 65.625 57.9688 65.625H53.5938C52.9911 65.625 52.5 65.1339 52.5 64.5312V61.25H59.0625V64.5312ZM65.625 55.7812C65.625 57.5903 64.1528 59.0625 62.3438 59.0625H60.1562H51.4062H18.5938H9.84375H7.65625C5.84719 59.0625 4.375 57.5903 4.375 55.7812V17.5H65.625V55.7812Z" fill="#28285A"/>
<path d="M7.65625 56.875H62.3438C62.9475 56.875 63.4375 56.385 63.4375 55.7812V29.5312C63.4375 28.9275 62.9475 28.4375 62.3438 28.4375H7.65625C7.0525 28.4375 6.5625 28.9275 6.5625 29.5312V55.7812C6.5625 56.385 7.0525 56.875 7.65625 56.875ZM8.75 30.625H61.25V54.6875H8.75V30.625Z" fill="#28285A"/>
<path d="M9.84375 24.0625H60.1562V26.25H62.3438V19.6875H60.1562V21.875H9.84375V19.6875H7.65625V26.25H9.84375V24.0625Z" fill="#28285A"/>
<path d="M56.875 6.5625C55.0659 6.5625 53.5938 8.03469 53.5938 9.84375C53.5938 11.6528 55.0659 13.125 56.875 13.125C58.6841 13.125 60.1562 11.6528 60.1562 9.84375C60.1562 8.03469 58.6841 6.5625 56.875 6.5625ZM56.875 10.9375C56.2723 10.9375 55.7812 10.4464 55.7812 9.84375C55.7812 9.24109 56.2723 8.75 56.875 8.75C57.4777 8.75 57.9688 9.24109 57.9688 9.84375C57.9688 10.4464 57.4777 10.9375 56.875 10.9375Z" fill="#28285A"/>
<path d="M47.0312 6.5625C45.2222 6.5625 43.75 8.03469 43.75 9.84375C43.75 11.6528 45.2222 13.125 47.0312 13.125C48.8403 13.125 50.3125 11.6528 50.3125 9.84375C50.3125 8.03469 48.8403 6.5625 47.0312 6.5625ZM47.0312 10.9375C46.4286 10.9375 45.9375 10.4464 45.9375 9.84375C45.9375 9.24109 46.4286 8.75 47.0312 8.75C47.6339 8.75 48.125 9.24109 48.125 9.84375C48.125 10.4464 47.6339 10.9375 47.0312 10.9375Z" fill="#28285A"/>
<path d="M20.7812 8.75H8.75V10.9375H20.7812V8.75Z" fill="#28285A"/>
<path d="M38.2812 6.5625H25.1562C24.5525 6.5625 24.0625 7.0525 24.0625 7.65625V12.0312C24.0625 12.635 24.5525 13.125 25.1562 13.125H38.2812C38.885 13.125 39.375 12.635 39.375 12.0312V7.65625C39.375 7.0525 38.885 6.5625 38.2812 6.5625ZM37.1875 10.9375H26.25V8.75H37.1875V10.9375Z" fill="#28285A"/>
<path d="M49.2188 47.0312C49.2188 42.8094 45.7844 39.375 41.5625 39.375H40.3134C39.8245 37.4937 38.1259 36.0938 36.0938 36.0938H33.9062C31.8741 36.0938 30.1755 37.4937 29.6866 39.375H28.4375C24.2156 39.375 20.7812 42.8094 20.7812 47.0312V50.3125H13.125V52.5H21.875H30.625H39.375H48.125H56.875V50.3125H49.2188V47.0312ZM22.9688 47.0312C22.9688 44.0158 25.422 41.5625 28.4375 41.5625H29.5312V50.3125H22.9688V47.0312ZM31.7188 40.4688C31.7188 39.2623 32.6998 38.2812 33.9062 38.2812H36.0938C37.3002 38.2812 38.2812 39.2623 38.2812 40.4688V50.3125H31.7188V40.4688ZM40.4688 50.3125V41.5625H41.5625C44.578 41.5625 47.0312 44.0158 47.0312 47.0312V50.3125H40.4688Z" fill="#28285A"/>
<path d="M15.1462 42.0765C14.7415 41.4312 14.0842 40.0892 14.2155 38.3643C14.3095 37.1306 14.7722 36.1714 15.143 35.584L13.2945 34.4159C12.5715 35.5589 12.1362 36.867 12.0345 38.1981C11.8551 40.5453 12.7455 42.362 13.2912 43.2359L15.1462 42.0765Z" fill="#28285A"/>
<path d="M21.7087 39.889C21.3041 39.2437 20.6467 37.9017 20.778 36.1768C20.872 34.9431 21.3347 33.9839 21.7055 33.3965L19.857 32.2284C19.1341 33.3714 18.6987 34.6795 18.597 36.0106C18.4176 38.3578 19.308 40.1745 19.8537 41.0484L21.7087 39.889Z" fill="#28285A"/>
<path d="M57.7992 34.4159L55.9508 35.584C56.3216 36.1714 56.7842 37.1306 56.8783 38.3643C57.0095 40.0892 56.3522 41.4312 55.9475 42.0765L57.8025 43.237C58.3483 42.3631 59.2375 40.5475 59.0592 38.1992C58.9575 36.867 58.5222 35.5589 57.7992 34.4159Z" fill="#28285A"/>
<path d="M51.24 41.0484C51.7858 40.1745 52.675 38.3589 52.4967 36.0106C52.395 34.6795 51.9597 33.3714 51.2367 32.2284L49.3883 33.3965C49.7591 33.9839 50.2217 34.9431 50.3158 36.1768C50.447 37.9017 49.7897 39.2437 49.385 39.889L51.24 41.0484Z" fill="#28285A"/>
</svg>
