<svg width="70" height="70" viewBox="0 0 70 70" fill="none" xmlns="http://www.w3.org/2000/svg">
<path d="M64.5312 10.9375H63.4375V9.40629C63.4375 9.07816 63.2844 8.76098 63.0219 8.55316L60.8344 6.80316C60.3641 6.43129 59.675 6.50785 59.2922 6.97816C58.9203 7.44848 58.9969 8.13754 59.4672 8.52035L61.25 9.93129V10.9375H44.8438V9.93129L46.6266 8.50941C47.0969 8.13754 47.1734 7.44848 46.8016 6.96723C46.4188 6.49691 45.7406 6.42035 45.2594 6.79223L43.0719 8.54223C42.8094 8.76098 42.6562 9.07816 42.6562 9.40629V10.9375H27.3438V9.40629C27.3438 9.07816 27.1906 8.76098 26.9281 8.55316L24.7406 6.80316C24.2703 6.43129 23.5812 6.50785 23.1984 6.97816C22.8266 7.44848 22.9031 8.13754 23.3734 8.52035L25.1562 9.93129V10.9375H8.75V9.93129L10.5328 8.50941C11.0031 8.13754 11.0797 7.44848 10.7078 6.96723C10.325 6.49691 9.64688 6.42035 9.16563 6.79223L6.97813 8.54223C6.71563 8.76098 6.5625 9.07816 6.5625 9.40629V10.9375H5.46875C3.05156 10.9375 1.09375 12.8954 1.09375 15.3125V59.0625C1.09375 61.4797 3.05156 63.4375 5.46875 63.4375H6.97813L5.57812 66.2266C5.30469 66.7625 5.52344 67.4188 6.07031 67.6922C6.23438 67.7797 6.39844 67.8125 6.5625 67.8125C6.96719 67.8125 7.35 67.5938 7.54688 67.211L9.42812 63.4375H61.6656L63.5469 67.211C63.7437 67.5938 64.1266 67.8125 64.5312 67.8125C64.6953 67.8125 64.8594 67.7797 65.0234 67.6922C65.5594 67.4188 65.7781 66.7625 65.5156 66.2266L64.1156 63.4375H64.5312C66.9484 63.4375 68.9062 61.4797 68.9062 59.0625V15.3125C68.9062 12.8954 66.9484 10.9375 64.5312 10.9375ZM66.7188 59.0625C66.7188 60.2657 65.7344 61.25 64.5312 61.25H5.46875C4.26562 61.25 3.28125 60.2657 3.28125 59.0625V15.3125C3.28125 14.1094 4.26562 13.125 5.46875 13.125H64.5312C65.7344 13.125 66.7188 14.1094 66.7188 15.3125V59.0625Z" fill="#28285A"/>
<path d="M61.25 33.9062H8.75C8.14844 33.9062 7.65625 34.3984 7.65625 35V52.5C7.65625 53.1016 8.14844 53.5938 8.75 53.5938H61.25C61.8516 53.5938 62.3438 53.1016 62.3438 52.5V35C62.3438 34.3984 61.8516 33.9062 61.25 33.9062ZM60.1562 51.4062H9.84375V36.0938H60.1562V51.4062Z" fill="#28285A"/>
<path d="M12.0312 28.4375C14.4484 28.4375 16.4062 26.4797 16.4062 24.0625C16.4062 21.6453 14.4484 19.6875 12.0312 19.6875C9.61406 19.6875 7.65625 21.6453 7.65625 24.0625C7.65625 26.4797 9.61406 28.4375 12.0312 28.4375ZM12.0312 21.875C13.2344 21.875 14.2188 22.8594 14.2188 24.0625C14.2188 25.2656 13.2344 26.25 12.0312 26.25C10.8281 26.25 9.84375 25.2656 9.84375 24.0625C9.84375 22.8594 10.8281 21.875 12.0312 21.875Z" fill="#28285A"/>
<path d="M27.3438 28.4375C29.7609 28.4375 31.7188 26.4797 31.7188 24.0625C31.7188 21.6453 29.7609 19.6875 27.3438 19.6875C24.9266 19.6875 22.9688 21.6453 22.9688 24.0625C22.9688 26.4797 24.9266 28.4375 27.3438 28.4375ZM27.3438 21.875C28.5469 21.875 29.5312 22.8594 29.5312 24.0625C29.5312 25.2656 28.5469 26.25 27.3438 26.25C26.1406 26.25 25.1562 25.2656 25.1562 24.0625C25.1562 22.8594 26.1406 21.875 27.3438 21.875Z" fill="#28285A"/>
<path d="M42.6562 28.4375C45.0734 28.4375 47.0312 26.4797 47.0312 24.0625C47.0312 21.6453 45.0734 19.6875 42.6562 19.6875C40.2391 19.6875 38.2812 21.6453 38.2812 24.0625C38.2812 26.4797 40.2391 28.4375 42.6562 28.4375ZM42.6562 21.875C43.8594 21.875 44.8438 22.8594 44.8438 24.0625C44.8438 25.2656 43.8594 26.25 42.6562 26.25C41.4531 26.25 40.4688 25.2656 40.4688 24.0625C40.4688 22.8594 41.4531 21.875 42.6562 21.875Z" fill="#28285A"/>
<path d="M57.9688 19.6875C55.5516 19.6875 53.5938 21.6453 53.5938 24.0625C53.5938 26.4797 55.5516 28.4375 57.9688 28.4375C60.3859 28.4375 62.3438 26.4797 62.3438 24.0625C62.3438 21.6453 60.3859 19.6875 57.9688 19.6875ZM57.9688 26.25C56.7656 26.25 55.7812 25.2656 55.7812 24.0625C55.7812 22.8594 56.7656 21.875 57.9688 21.875C59.1719 21.875 60.1562 22.8594 60.1562 24.0625C60.1562 25.2656 59.1719 26.25 57.9688 26.25Z" fill="#28285A"/>
</svg>
