<svg width="70" height="70" viewBox="0 0 70 70" fill="none" xmlns="http://www.w3.org/2000/svg">
<path d="M5.6074 7.00005C4.83418 7.00005 4.2074 7.62685 4.2074 8.40005C4.2074 9.17324 4.83418 9.80005 5.6074 9.80005H12.8699L20.2417 44.625C20.4206 45.4854 20.9953 46.2091 21.7074 46.2H56.7074C57.447 46.2105 58.1273 45.5398 58.1273 44.8C58.1273 44.0603 57.447 43.3896 56.7074 43.4H22.8449L21.6636 37.8H59.5074C60.1342 37.793 60.7265 37.3179 60.8636 36.7063L65.7636 15.7063C65.9457 14.8938 65.24 14.006 64.4074 14H16.6324L15.3856 8.0938C15.2468 7.47501 14.6415 6.99463 14.0074 7.00005H5.6074ZM17.2231 16.8H29.6261L30.9167 24.5H18.8636L17.2231 16.8ZM32.4481 16.8H47.3667L46.0761 24.5H33.7386L32.4481 16.8ZM50.1886 16.8H62.6574L60.8636 24.5H48.8981L50.1886 16.8ZM19.4542 27.3H31.3761L32.6667 35H21.0731L19.4542 27.3ZM34.2199 27.3H45.5949L44.3261 35H35.4886L34.2199 27.3ZM48.4386 27.3H60.2074L58.3917 35H47.1481L48.4386 27.3ZM28.7074 50.4C25.2446 50.4 22.4074 53.2372 22.4074 56.7C22.4074 60.1628 25.2446 63 28.7074 63C32.1702 63 35.0074 60.1628 35.0074 56.7C35.0074 53.2372 32.1702 50.4 28.7074 50.4ZM49.7074 50.4C46.2446 50.4 43.4074 53.2372 43.4074 56.7C43.4074 60.1628 46.2446 63 49.7074 63C53.1702 63 56.0074 60.1628 56.0074 56.7C56.0074 53.2372 53.1702 50.4 49.7074 50.4ZM28.7074 53.2C30.657 53.2 32.2074 54.7504 32.2074 56.7C32.2074 58.6496 30.657 60.2 28.7074 60.2C26.7579 60.2 25.2074 58.6496 25.2074 56.7C25.2074 54.7505 26.7579 53.2 28.7074 53.2ZM49.7074 53.2C51.657 53.2 53.2074 54.7504 53.2074 56.7C53.2074 58.6496 51.657 60.2 49.7074 60.2C47.7579 60.2 46.2074 58.6496 46.2074 56.7C46.2074 54.7505 47.7579 53.2 49.7074 53.2Z" fill="#28285A"/>
</svg>
