<svg width="70" height="70" viewBox="0 0 70 70" fill="none" xmlns="http://www.w3.org/2000/svg">
<path d="M68.9062 39.3192C68.9062 34.557 66.5973 30.0092 62.7298 27.1545C61.9412 26.5705 60.9634 26.25 59.978 26.25C58.7442 26.25 57.5881 26.7433 56.7394 27.5822C56.5808 27.4498 56.4364 27.3044 56.2723 27.1786C55.6653 26.7148 54.9369 26.4392 54.1887 26.3255L54.6711 21.0219C54.682 20.895 54.6875 20.767 54.6875 20.6391C54.6875 18.305 52.7887 16.4062 50.4547 16.4062H50.1703C47.8363 16.4062 45.9375 18.305 45.9375 20.6391C45.9375 20.767 45.943 20.895 45.955 21.023L46.4395 26.3495C45.7461 26.4808 45.0756 26.7487 44.5091 27.1709C44.3133 27.3175 44.1394 27.4859 43.9512 27.6402C43.8539 27.5395 43.7511 27.4455 43.645 27.3547C43.7073 26.9905 43.75 26.6219 43.75 26.25C43.75 24.8609 43.3169 23.532 42.5141 22.4219C43.3169 21.3117 43.75 19.9839 43.75 18.5938C43.75 14.8488 40.5814 11.8136 36.8058 12.0433C36.1036 10.0308 34.4663 8.51375 32.4538 7.92859C31.1216 6.26719 29.1134 5.34516 26.962 5.48078C26.0564 2.88531 23.6042 1.09375 20.7812 1.09375C18.4133 1.09375 16.2575 2.36031 15.0959 4.37828C12.1997 4.47562 9.69609 6.51984 8.97859 9.30453C5.59234 10.5678 3.28125 13.8458 3.28125 17.5C3.28125 20.4302 4.72281 23.1087 7.10828 24.7275C6.74844 25.5489 6.5625 26.437 6.5625 27.3438C6.5625 29.3125 7.4375 31.1423 8.93922 32.3816C8.81344 32.8891 8.75 33.3998 8.75 33.9062C8.75 37.2575 11.2766 40.0312 14.525 40.4217L16.9444 47.1975C15.7052 48.1108 14.6497 49.2537 13.837 50.5662L8.10688 49.2931C7.88922 49.2428 7.665 49.2188 7.43969 49.2188C5.74984 49.2188 4.375 50.5936 4.375 52.2834V52.7166C4.375 53.0228 4.43406 53.3138 4.51828 53.5938H4.375C2.56594 53.5938 1.09375 55.0659 1.09375 56.875C1.09375 58.6841 2.56594 60.1562 4.375 60.1562H4.51828C4.43406 60.4362 4.375 60.7272 4.375 61.0334V61.4666C4.375 63.1564 5.74984 64.5312 7.43969 64.5312C7.665 64.5312 7.88922 64.5072 8.10469 64.458L13.837 63.1838C15.96 66.6116 19.7433 68.9062 24.0625 68.9062H24.3195C24.9277 68.9062 25.5434 68.8592 26.1483 68.7663L63.6541 62.9967C66.6969 62.5275 68.9062 59.9539 68.9062 56.875C68.9062 54.413 67.4811 52.2944 65.3592 51.2958C67.6255 48.5887 68.9062 45.1544 68.9062 41.6183V39.3192ZM54.9423 28.9166C58.2072 31.4125 60.1562 35.3883 60.1562 39.5544V43.5717C60.1562 45.8139 59.5973 48.0091 58.5441 49.968L49.7733 48.6183C49.4123 47.0312 49.2188 45.4103 49.2188 43.7828V39.3422C49.2188 38.2397 49.3292 37.1383 49.4966 36.0467C49.7645 36.0697 50.0314 36.0938 50.3125 36.0938C53.4308 36.0938 55.7812 34.6828 55.7812 32.8125C55.7812 31.78 55.067 30.8634 53.83 30.2619L53.9908 28.4922C54.332 28.5611 54.6602 28.6989 54.9423 28.9166ZM50.1703 18.5938H50.4558C51.5834 18.5938 52.5011 19.5114 52.5011 20.6391C52.5011 20.7014 52.4989 20.7638 52.4923 20.825L51.4992 31.7483L52.3337 32.0162C53.2919 32.3225 53.5938 32.7261 53.5938 32.8125C53.5938 33.0848 52.43 33.9062 50.3125 33.9062C48.195 33.9062 47.0312 33.0848 47.0312 32.8125C47.0312 32.7261 47.3331 32.3225 48.2913 32.0152L49.1258 31.7472L48.1327 20.825C48.1272 20.7627 48.125 20.7003 48.125 20.6391C48.125 19.5114 49.0427 18.5938 50.1703 18.5938ZM46.6375 28.5283L46.795 30.2619C45.558 30.8634 44.8438 31.78 44.8438 32.8125C44.8438 34.0178 45.827 35.0252 47.355 35.5939C47.1592 36.8353 47.0312 38.0888 47.0312 39.3422V43.7828C47.0312 45.2856 47.1756 46.7863 47.4556 48.2617L41.008 47.2697C40.6569 46.0677 40.4688 44.8284 40.4688 43.5706V39.5533C40.4688 35.3937 42.4681 31.4191 45.8172 28.9231C46.0611 28.7416 46.3422 28.6081 46.6375 28.5283ZM34.8173 46.317C34.2234 44.8142 33.9062 43.2403 33.9062 41.6183V39.3181C33.9062 35.2472 35.8838 31.3578 39.1945 28.9122C39.6102 28.6059 40.1264 28.4375 40.647 28.4375C41.3077 28.4375 41.9158 28.7033 42.3609 29.1484C39.7819 31.9747 38.2812 35.6869 38.2812 39.5544V43.5717C38.2812 44.6994 38.4158 45.815 38.6597 46.9088L34.8173 46.317ZM34.9202 13.4542L35.1192 14.5797L36.2348 14.3314C36.5739 14.2559 36.8856 14.2188 37.1875 14.2188C39.6003 14.2188 41.5625 16.1809 41.5625 18.5938C41.5625 19.7433 41.1163 20.8305 40.3069 21.6552L39.5544 22.4219L40.3069 23.1886C41.1163 24.0133 41.5625 25.1005 41.5625 26.25C41.5625 26.2828 41.5559 26.3156 41.5559 26.3495C41.2595 26.2905 40.9577 26.25 40.647 26.25C39.6616 26.25 38.6838 26.5705 37.8952 27.1534C35.9045 28.6223 34.3372 30.5441 33.2741 32.7086C32.8595 31.418 32.4242 30.182 31.9758 29.0084C32.9875 23.6644 36.7402 20.5712 36.7784 20.5395L36.0938 19.6875L35.4102 18.8333C35.2581 18.9547 32.2995 21.3708 30.6381 25.7294C28.362 20.5034 26.2139 17.1227 26.0761 16.9083L24.2353 18.0917C24.2648 18.1366 25.9328 20.7605 27.8742 24.9375C24.6028 23.7059 20.8852 24.0461 20.6719 24.068L20.8895 26.2445C22.5345 26.0794 27.1939 26.1592 29.3705 28.3806C30.1372 30.2652 30.893 32.3312 31.5602 34.545C28.2352 32.8398 24.2681 32.8125 24.0625 32.8125V35C24.1139 35 28.9833 35.0328 31.8653 37.3242C31.7756 37.9827 31.7188 38.6477 31.7188 39.3192V41.6194C31.7188 43.097 31.9462 44.5419 32.3684 45.9419L26.1483 44.9848C25.8202 44.9345 25.4888 44.9006 25.1562 44.8766C22.7434 44.8766 20.7812 42.8991 20.7812 40.4698C20.7812 39.9602 20.883 39.4373 21.082 38.9134L21.4014 38.0767L20.6434 37.5977C19.3605 36.7861 18.5938 35.4069 18.5938 33.9062C18.5938 33.0455 18.8464 32.2109 19.3244 31.4912L20.0058 30.4675L18.9098 29.9108C16.6906 28.782 15.3125 26.542 15.3125 24.0625C15.3125 21.152 17.2681 18.5598 20.0692 17.7581L20.7484 17.5634L20.8502 16.8645C21.1619 14.7328 23.0136 13.125 25.1562 13.125C25.1967 13.125 25.2361 13.1337 25.2755 13.1392C25.352 13.1502 25.4297 13.16 25.5073 13.1655L26.2916 13.2289L26.6 12.5048C27.2902 10.8883 28.8695 9.84375 30.625 9.84375C32.7447 9.84375 34.5505 11.3619 34.9202 13.4542ZM16.0836 38.2812H15.3125C12.8997 38.2812 10.9375 36.3191 10.9375 33.9062C10.9375 33.3955 11.0392 32.8727 11.2383 32.3509L11.5588 31.5142L10.8008 31.0352C9.51672 30.2236 8.75 28.8444 8.75 27.3438C8.75 26.483 9.00266 25.6484 9.48063 24.9287L10.162 23.905L9.06609 23.3483C6.84687 22.2195 5.46875 19.9795 5.46875 17.5C5.46875 14.5895 7.42437 11.9973 10.2244 11.1956L10.9036 11.0009L11.0053 10.302C11.3181 8.17031 13.1698 6.5625 15.3125 6.5625C15.3541 6.5625 15.3945 6.57125 15.435 6.57672C15.5094 6.58656 15.5837 6.59641 15.6603 6.60297L16.4478 6.66859L16.7573 5.94125C17.4464 4.32578 19.0258 3.28125 20.7812 3.28125C22.9009 3.28125 24.7067 4.79938 25.0764 6.89172L25.2755 8.01719L26.3911 7.76891C26.7302 7.69344 27.0419 7.65625 27.3438 7.65625C27.8469 7.65625 28.3248 7.76672 28.782 7.92641C27.1742 8.39672 25.7895 9.46422 24.9397 10.9408C22.0434 11.0381 19.5398 13.0823 18.8223 15.867C15.4361 17.1303 13.125 20.4083 13.125 24.0625C13.125 26.9927 14.5666 29.6712 16.952 31.29C16.5922 32.1114 16.4062 32.9995 16.4062 33.9062C16.4062 35.875 17.2812 37.7048 18.783 38.9452C18.6572 39.4527 18.5938 39.9623 18.5938 40.4688C18.5938 42.3905 19.4206 44.1175 20.7298 45.3228C20.0802 45.5109 19.4556 45.7548 18.8562 46.0447L16.0836 38.2812ZM6.5625 52.7166V52.2834C6.5625 51.7344 7.09406 51.3111 7.63109 51.427L12.8363 52.5842C12.7094 52.9145 12.5956 53.2503 12.4983 53.5938H7.43969C6.95625 53.5938 6.5625 53.2 6.5625 52.7166ZM3.28125 56.875C3.28125 56.2723 3.77234 55.7812 4.375 55.7812H7.43969H12.0859C12.0542 56.1422 12.0312 56.5053 12.0312 56.875C12.0312 57.2447 12.0542 57.6078 12.087 57.9688H7.43969H4.375C3.77234 57.9688 3.28125 57.4777 3.28125 56.875ZM7.62891 62.323C7.11047 62.4345 6.5625 62.0145 6.5625 61.4666V61.0334C6.5625 60.55 6.95625 60.1562 7.43969 60.1562H12.4972C12.5945 60.4997 12.7094 60.8355 12.8352 61.1658L7.62891 62.323ZM66.7188 56.875C66.7188 58.8667 65.2903 60.5314 63.3227 60.8344L25.818 66.6039C25.3214 66.6805 24.8172 66.7188 24.3195 66.7188H24.0625C18.6353 66.7188 14.2188 62.3022 14.2188 56.875C14.2188 51.4478 18.6353 47.0312 24.0625 47.0312H24.3195C24.8172 47.0312 25.3214 47.0695 25.8169 47.145L63.3216 52.9145C65.2903 53.2186 66.7188 54.8833 66.7188 56.875ZM66.7188 41.6183C66.7188 44.9827 65.357 48.2377 62.988 50.6505L60.8147 50.3158C61.8133 48.218 62.3438 45.9178 62.3438 43.5706V39.5533C62.3438 35.6661 60.8628 31.9353 58.3187 29.1047C58.7606 28.688 59.3469 28.4375 59.978 28.4375C60.4997 28.4375 61.0148 28.6059 61.4305 28.9144C64.7412 31.3578 66.7188 35.2483 66.7188 39.3192V41.6183Z" fill="#28285A"/>
<path d="M25.1562 51.4062H22.9688V62.3438H25.1562V51.4062Z" fill="#28285A"/>
<path d="M33.9062 51.4062H31.7188V62.3438H33.9062V51.4062Z" fill="#28285A"/>
<path d="M42.6562 51.4062H40.4688V62.3438H42.6562V51.4062Z" fill="#28285A"/>
<path d="M51.4062 53.5938H49.2188V60.1562H51.4062V53.5938Z" fill="#28285A"/>
<path d="M60.1562 54.6875H57.9688V59.0625H60.1562V54.6875Z" fill="#28285A"/>
</svg>
