<svg width="70" height="70" viewBox="0 0 70 70" fill="none" xmlns="http://www.w3.org/2000/svg">
<path d="M27.293 27.111C28.364 24.92 28.518 22.449 27.727 20.146C26.096 15.393 20.895 12.852 16.142 14.483C11.389 16.114 8.84795 21.315 10.479 26.068C11.774 29.848 15.323 32.228 19.11 32.228C20.09 32.228 21.084 32.067 22.064 31.731C24.367 30.94 26.222 29.295 27.293 27.111ZM15.953 29.547C14.231 28.707 12.943 27.244 12.32 25.438C11.039 21.7 13.034 17.612 16.772 16.331C17.542 16.065 18.326 15.939 19.096 15.939C22.071 15.939 24.864 17.808 25.879 20.776C26.502 22.589 26.383 24.528 25.543 26.25C24.703 27.972 23.24 29.26 21.434 29.883C19.621 30.506 17.675 30.387 15.953 29.547Z" fill="#28285A"/>
<path d="M51.135 21.987C47.033 23.394 44.842 27.874 46.256 31.976C46.935 33.964 48.356 35.567 50.239 36.484C51.331 37.016 52.507 37.289 53.683 37.289C54.544 37.289 55.405 37.149 56.245 36.862C58.233 36.183 59.836 34.762 60.753 32.879C61.677 30.989 61.81 28.861 61.124 26.873C59.717 22.771 55.237 20.58 51.135 21.987ZM59.003 32.018C58.31 33.439 57.106 34.503 55.615 35.014C54.124 35.525 52.514 35.427 51.1 34.734C49.679 34.041 48.615 32.837 48.104 31.339C47.047 28.259 48.692 24.885 51.772 23.828C52.409 23.611 53.053 23.506 53.69 23.506C56.147 23.506 58.443 25.046 59.29 27.496C59.794 29.001 59.696 30.604 59.003 32.018Z" fill="#28285A"/>
<path d="M30.0229 47.705C28.6929 48.797 27.8739 50.337 27.7059 52.052C27.5379 53.76 28.0489 55.433 29.1409 56.763C30.2329 58.093 31.7729 58.912 33.4879 59.08C33.7049 59.101 33.9149 59.108 34.1249 59.108C35.6089 59.108 37.0369 58.597 38.1989 57.645C39.5289 56.553 40.3479 55.013 40.5159 53.298C40.6839 51.59 40.1729 49.917 39.0879 48.587C36.8269 45.85 32.7669 45.451 30.0229 47.705ZM38.5699 53.116C38.4509 54.306 37.8769 55.384 36.9529 56.14C36.0289 56.903 34.8599 57.253 33.6699 57.141C32.4799 57.022 31.4019 56.448 30.6459 55.524C29.8829 54.6 29.5329 53.431 29.6449 52.241C29.7639 51.051 30.3379 49.973 31.2619 49.217C32.0949 48.531 33.1029 48.202 34.1039 48.202C35.3989 48.202 36.6869 48.762 37.5689 49.84C38.3319 50.757 38.6889 51.919 38.5699 53.116Z" fill="#28285A"/>
<path d="M22.386 42.21C22.568 42.21 22.757 42.182 22.939 42.119L27.755 40.467C28.595 40.18 29.078 39.277 28.854 38.416L28.245 36.071C29.183 35.406 30.051 34.643 30.828 33.789L33.082 34.685C33.908 35.014 34.86 34.643 35.252 33.845L37.485 29.267C37.877 28.469 37.583 27.489 36.813 27.041L34.72 25.809C34.916 24.675 34.993 23.52 34.937 22.365L37.163 21.406C37.982 21.056 38.395 20.118 38.101 19.278L36.449 14.462C36.162 13.622 35.259 13.139 34.398 13.363L32.053 13.972C31.388 13.034 30.625 12.166 29.771 11.389L30.667 9.13504C30.996 8.30904 30.625 7.35704 29.827 6.96504L25.249 4.73204C24.451 4.34004 23.471 4.63404 23.023 5.40404L21.791 7.49704C20.657 7.30104 19.502 7.22404 18.347 7.28004L17.395 5.04004C17.045 4.22104 16.107 3.80804 15.267 4.10204L10.451 5.75404C9.61097 6.04104 9.12797 6.94404 9.35197 7.80504L9.96097 10.15C9.02297 10.815 8.15497 11.578 7.37797 12.432L5.12397 11.536C4.29797 11.207 3.34597 11.578 2.95397 12.376L0.720972 16.954C0.328972 17.752 0.622972 18.732 1.39297 19.18L3.48597 20.412C3.28997 21.546 3.21297 22.708 3.26897 23.856L1.04297 24.815C0.223972 25.165 -0.189028 26.103 0.104972 26.943L1.75697 31.759C2.04397 32.599 2.94697 33.082 3.80797 32.858L6.15297 32.249C6.81797 33.194 7.58097 34.055 8.43497 34.832L7.53897 37.086C7.20997 37.912 7.58097 38.864 8.37897 39.256L12.957 41.489C13.755 41.881 14.735 41.587 15.183 40.817L16.415 38.724C17.549 38.92 18.711 38.99 19.859 38.941L20.818 41.167C21.084 41.818 21.721 42.21 22.386 42.21ZM19.964 36.988C18.823 37.058 17.668 36.988 16.541 36.778C15.876 36.652 15.19 36.96 14.847 37.548L13.615 39.648L9.43597 37.604L10.332 35.343C10.584 34.706 10.409 33.978 9.89797 33.53C9.03697 32.774 8.27397 31.906 7.62297 30.961C7.23797 30.401 6.53797 30.135 5.87997 30.31L3.52097 30.919L2.00897 26.523L4.24197 25.557C4.87197 25.284 5.26397 24.647 5.22197 23.968C5.15197 22.827 5.22197 21.672 5.43197 20.545C5.55797 19.873 5.24997 19.194 4.66197 18.851L2.56197 17.619L4.60597 13.44L6.86697 14.336C7.50397 14.588 8.23197 14.413 8.67997 13.902C9.43597 13.041 10.304 12.278 11.249 11.627C11.809 11.242 12.075 10.542 11.9 9.88404L11.291 7.52504L15.687 6.01304L16.653 8.24604C16.926 8.87604 17.563 9.26804 18.242 9.21904C19.39 9.14904 20.538 9.21904 21.665 9.43604C22.33 9.56204 23.016 9.25404 23.359 8.66604L24.591 6.56604L28.77 8.61004L27.874 10.871C27.622 11.508 27.797 12.236 28.308 12.684C29.169 13.44 29.932 14.308 30.583 15.253C30.968 15.813 31.668 16.079 32.326 15.904L34.685 15.295L36.197 19.691L33.964 20.657C33.334 20.93 32.942 21.567 32.991 22.246C33.061 23.387 32.991 24.542 32.774 25.669C32.648 26.341 32.956 27.02 33.544 27.363L35.644 28.595L33.6 32.781L31.339 31.885C30.702 31.633 29.974 31.808 29.526 32.319C28.77 33.18 27.902 33.943 26.957 34.594C26.397 34.979 26.131 35.679 26.306 36.337L26.915 38.696L22.519 40.208L21.553 37.975C21.294 37.38 20.706 36.995 20.069 36.995C20.027 36.988 19.992 36.988 19.964 36.988Z" fill="#28285A"/>
<path d="M68.754 32.613L67.074 31.626C67.221 30.723 67.284 29.806 67.242 28.889L69.034 28.119C69.797 27.79 70.182 26.915 69.909 26.131L68.509 22.057C68.236 21.273 67.403 20.818 66.598 21.028L64.715 21.518C64.183 20.776 63.574 20.083 62.895 19.46L63.616 17.647C63.924 16.877 63.581 15.988 62.832 15.617L58.961 13.727C58.212 13.363 57.302 13.636 56.882 14.357L55.895 16.037C54.992 15.89 54.075 15.827 53.158 15.869L52.388 14.077C52.059 13.314 51.184 12.929 50.4 13.202L46.326 14.602C45.542 14.875 45.087 15.715 45.297 16.513L45.787 18.396C45.045 18.928 44.352 19.537 43.729 20.216L41.916 19.495C41.146 19.187 40.25 19.53 39.886 20.279L37.996 24.15C37.632 24.899 37.905 25.809 38.626 26.229L40.306 27.216C40.159 28.119 40.096 29.036 40.138 29.953L38.346 30.723C37.583 31.052 37.198 31.927 37.464 32.711L38.864 36.785C39.137 37.569 39.977 38.024 40.775 37.814L42.658 37.324C43.19 38.066 43.799 38.759 44.478 39.382L43.757 41.195C43.449 41.965 43.792 42.854 44.541 43.225L48.412 45.115C49.161 45.479 50.071 45.206 50.491 44.485L51.478 42.805C52.381 42.952 53.298 43.015 54.215 42.973L54.985 44.765C55.244 45.36 55.839 45.731 56.462 45.731C56.63 45.731 56.805 45.703 56.973 45.647L61.047 44.247C61.831 43.974 62.286 43.134 62.076 42.336L61.6 40.446C62.342 39.914 63.035 39.305 63.658 38.626L65.471 39.347C66.241 39.655 67.13 39.312 67.501 38.563L69.391 34.692C69.748 33.95 69.475 33.033 68.754 32.613ZM65.884 37.415L64.099 36.708C63.504 36.47 62.818 36.638 62.398 37.114C61.768 37.835 61.04 38.472 60.249 39.011C59.724 39.368 59.479 40.026 59.633 40.649L60.116 42.511L56.658 43.701L55.895 41.937C55.65 41.377 55.104 41.02 54.502 41.02C54.474 41.02 54.439 41.02 54.411 41.02C53.452 41.083 52.493 41.02 51.555 40.845C50.925 40.726 50.288 41.02 49.959 41.573L48.986 43.232L45.703 41.629L46.41 39.844C46.648 39.249 46.48 38.563 46.004 38.143C45.283 37.506 44.646 36.785 44.107 35.994C43.75 35.469 43.092 35.217 42.469 35.378L40.607 35.861L39.417 32.403L41.181 31.64C41.769 31.388 42.14 30.786 42.098 30.149C42.035 29.197 42.098 28.231 42.273 27.293C42.392 26.663 42.098 26.026 41.545 25.697L39.886 24.724L41.489 21.441L43.274 22.148C43.869 22.386 44.555 22.225 44.975 21.742C45.605 21.021 46.333 20.384 47.124 19.845C47.649 19.488 47.894 18.83 47.74 18.207L47.257 16.345L50.715 15.155L51.478 16.919C51.73 17.507 52.332 17.871 52.969 17.836C53.928 17.773 54.887 17.836 55.825 18.011C56.455 18.13 57.092 17.836 57.421 17.283L58.394 15.624L61.677 17.227L60.97 19.012C60.739 19.614 60.9 20.3 61.383 20.72C62.104 21.35 62.741 22.078 63.28 22.869C63.637 23.394 64.302 23.639 64.918 23.478L66.78 22.995L67.97 26.453L66.206 27.216C65.618 27.468 65.247 28.07 65.289 28.707C65.352 29.659 65.289 30.625 65.114 31.563C64.995 32.193 65.289 32.83 65.842 33.159L67.501 34.132L65.884 37.415Z" fill="#28285A"/>
<path d="M46.214 50.6731L44.828 50.4281C44.695 49.7911 44.506 49.1751 44.268 48.5731L45.283 47.6001C45.836 47.0681 45.885 46.1931 45.402 45.6051L43.239 42.9661C42.756 42.3781 41.888 42.2591 41.258 42.6931L40.103 43.4981C39.564 43.1411 38.99 42.8401 38.395 42.5881L38.423 41.1811C38.437 40.4181 37.856 39.7601 37.1 39.6901L33.705 39.3541C32.949 39.2771 32.249 39.8091 32.116 40.5651L31.871 41.9511C31.234 42.0841 30.618 42.2731 30.016 42.5111L29.043 41.4961C28.518 40.9431 27.636 40.8941 27.048 41.3771L24.409 43.5471C23.821 44.0301 23.702 44.8981 24.136 45.5281L24.941 46.6831C24.584 47.2221 24.283 47.7961 24.031 48.3911L22.624 48.3631C22.617 48.3631 22.603 48.3631 22.596 48.3631C21.847 48.3631 21.203 48.9371 21.133 49.6861L20.797 53.0811C20.72 53.8441 21.252 54.5371 22.008 54.6701L23.394 54.9151C23.527 55.5451 23.716 56.1681 23.954 56.7701L22.939 57.7431C22.386 58.2681 22.337 59.1431 22.82 59.7381L24.99 62.3771C25.473 62.9651 26.341 63.0841 26.971 62.6501L28.126 61.8451C28.665 62.2021 29.239 62.5031 29.834 62.7551L29.806 64.1621C29.792 64.9251 30.373 65.5831 31.129 65.6531L34.524 65.9891C34.573 65.9961 34.622 65.9961 34.664 65.9961C35.364 65.9961 35.987 65.4851 36.113 64.7781L36.358 63.3921C36.995 63.2591 37.611 63.0701 38.213 62.8321L39.186 63.8471C39.711 64.4001 40.593 64.4491 41.181 63.9661L43.82 61.7961C44.408 61.3131 44.527 60.4451 44.093 59.8151L43.288 58.6601C43.645 58.1211 43.946 57.5471 44.198 56.9521L45.605 56.9801C45.612 56.9801 45.626 56.9801 45.633 56.9801C46.382 56.9801 47.019 56.4061 47.096 55.6571L47.432 52.2621C47.495 51.5061 46.963 50.8061 46.214 50.6731ZM45.192 55.0271L43.855 54.9991C43.848 54.9991 43.834 54.9991 43.827 54.9991C43.246 54.9991 42.721 55.3561 42.511 55.9021C42.245 56.5951 41.895 57.2531 41.468 57.8621C41.125 58.3451 41.125 58.9961 41.468 59.4791L42.231 60.5711L40.278 62.1741L39.354 61.2081C38.941 60.7811 38.304 60.6551 37.765 60.8931C37.086 61.1941 36.372 61.4111 35.644 61.5371C35.063 61.6351 34.601 62.0971 34.496 62.6781L34.265 63.9941L31.752 63.7491L31.78 62.4121C31.794 61.8171 31.43 61.2781 30.877 61.0681C30.184 60.8021 29.526 60.4521 28.917 60.0251C28.434 59.6821 27.783 59.6821 27.3 60.0251L26.208 60.7881L24.605 58.8421L25.571 57.9181C25.998 57.5051 26.124 56.8681 25.886 56.3291C25.585 55.6501 25.368 54.9361 25.242 54.2081C25.144 53.6271 24.682 53.1651 24.101 53.0601L22.785 52.8291L23.03 50.3161L24.367 50.3441C24.955 50.3651 25.501 49.9941 25.711 49.4411C25.977 48.7481 26.327 48.0901 26.754 47.4811C27.097 46.9981 27.097 46.3471 26.754 45.8641L25.991 44.7721L27.944 43.1691L28.868 44.1351C29.281 44.5621 29.918 44.6881 30.457 44.4501C31.136 44.1491 31.85 43.9321 32.578 43.8061C33.159 43.7081 33.621 43.2461 33.726 42.6651L33.957 41.3491L36.47 41.5941L36.442 42.9311C36.428 43.5261 36.792 44.0651 37.345 44.2751C38.038 44.5411 38.696 44.8911 39.305 45.3181C39.788 45.6611 40.439 45.6611 40.922 45.3181L42.014 44.5551L43.617 46.5081L42.651 47.4321C42.224 47.8451 42.098 48.4821 42.336 49.0211C42.637 49.7001 42.854 50.4141 42.98 51.1421C43.078 51.7231 43.54 52.1851 44.121 52.2901L45.437 52.5211L45.192 55.0271Z" fill="#28285A"/>
</svg>
